<?xml version="1.0" encoding="UTF-8"?>
<svg id="Capa_1" data-name="Capa 1" xmlns="http://www.w3.org/2000/svg" viewBox="0 0 170.51 170.51">
  <defs>
    <style>
      .cls-1 {
        fill: #54565a;
      }
    </style>
  </defs>
  <path class="cls-1" d="M85.25,5.81c43.81,0,79.45,35.64,79.45,79.45s-35.64,79.45-79.45,79.45S5.81,129.06,5.81,85.25,41.45,5.81,85.25,5.81M85.25,0C38.17,0,0,38.17,0,85.25s38.17,85.25,85.25,85.25,85.25-38.17,85.25-85.25S132.34,0,85.25,0h0Z"/>
  <g>
    <path class="cls-1" d="M106.82,71.65v.15c.16,3.89.25,8.79.25,14.15s-.1,10.26-.25,14.13v.15-.15c-.16-3.86-.25-8.77-.25-14.13s.09-10.26.22-14.15l.03-.15Z"/>
    <polygon class="cls-1" points="71.57 97.81 68.56 97.81 66.76 96.18 66.76 75.5 68.53 73.89 71.6 73.89 73.4 75.53 73.4 80.31 71.09 80.31 71.09 76.04 69.07 76.04 69.07 95.67 71.09 95.67 71.09 91.37 73.4 91.37 73.4 96.15 71.57 97.81"/>
    <polygon class="cls-1" points="76.54 97.81 76.54 73.89 78.85 73.89 78.85 95.67 82.51 95.67 82.51 97.81 76.54 97.81"/>
    <polygon class="cls-1" points="90.47 97.81 87.45 97.81 85.65 96.18 85.65 73.89 87.96 73.89 87.96 95.67 89.98 95.67 89.98 73.89 92.3 73.89 92.3 96.15 90.47 97.81"/>
    <path class="cls-1" d="M99.77,87.23h-2.03v8.44h2.03v-8.44ZM99.77,76.04h-2.03v9.06h2.03v-9.06ZM100.24,97.81h-4.81v-23.92h4.84l1.8,1.64v9.76l-.87.84.87.88v9.14l-1.83,1.66Z"/>
    <polygon class="cls-1" points="116.38 97.81 113.37 97.81 111.56 96.18 111.56 75.5 113.33 73.89 116.41 73.89 118.21 75.53 118.21 80.31 115.9 80.31 115.9 76.04 113.88 76.04 113.88 95.67 115.9 95.67 115.9 91.37 118.21 91.37 118.21 96.15 116.38 97.81"/>
    <path class="cls-1" d="M125.46,76.04h-2.03v9.06h2.03v-9.06ZM125.46,97.81v-10.58h-2.03v10.58h-2.31v-22.31l1.78-1.61h3.06l1.8,1.64v22.28h-2.3Z"/>
    <path class="cls-1" d="M135.01,87.23h-2.03v8.44h2.03v-8.44ZM135.01,76.04h-2.03v9.06h2.03v-9.06ZM135.5,97.81h-4.82v-23.92h4.84l1.8,1.64v9.76l-.87.84.87.88v9.14l-1.83,1.66Z"/>
    <path class="cls-1" d="M144.57,76.04h-2.02v19.64h2.02v-19.64ZM145.05,97.81h-3.01l-1.8-1.63v-20.68l1.77-1.61h3.06l1.8,1.64v20.62l-1.82,1.66Z"/>
    <path class="cls-1" d="M51.95,73.51l-1.89,1.32-1.13.8c.11.1.25.21.36.33l.76-.53-.53.76c.11.11.21.23.32.34l.79-1.14,1.32-1.88Z"/>
    <path class="cls-1" d="M37.37,81.04l1.61-7.62c-.22,0-.44.04-.66.07-2.68.24-5.09,1.31-7.02,2.97h0c-.13.11-.27.21-.39.33l6.25,4.37c.07-.04.14-.09.21-.12"/>
    <path class="cls-1" d="M48.1,76.8c-.12-.11-.26-.21-.39-.32h0c-1.94-1.67-4.35-2.74-7.04-2.98-.22-.03-.44-.06-.67-.07l1.64,7.59c.08.03.15.08.23.13l6.23-4.35Z"/>
    <path class="cls-1" d="M30.02,77.75c-1.61,1.86-2.67,4.18-2.98,6.76-.02.19-.04.37-.06.56l7.67-1.36.11-.02-.06-.08-4.37-6.24c-.11.12-.19.25-.31.37"/>
    <path class="cls-1" d="M38.64,71.99c.21-.01.43-.03.66-.03l.19-.94.2.94c.22,0,.44.02.66.03,3.3.21,6.28,1.54,8.57,3.63l1.13-.8c-2.62-2.47-6.12-4.05-9.98-4.18l-.59-2.79-.58,2.79-.27,1.35Z"/>
    <path class="cls-1" d="M30.13,96.31c-.12-.11-.25-.23-.37-.34l-.76.53.53-.76c-.11-.11-.21-.23-.31-.34-2.02-2.22-3.34-5.07-3.61-8.23-.02-.18-.03-.37-.03-.56l-3.59-.64,3.55-.63c0-.19.02-.37.03-.56.26-3.16,1.59-6.02,3.61-8.24.11-.12.21-.23.32-.34l-.52-.76.75.53c.12-.12.25-.22.37-.33l-1.13-.8-1.87-1.32,1.31,1.88c-2.41,2.54-3.97,5.9-4.19,9.62l-5.37.95,5.4.96c.23,3.72,1.78,7.08,4.19,9.61l-1.31,1.88,1.88-1.31c2.62,2.48,6.13,4.04,9.99,4.18l-.29-1.34c-3.3-.2-6.28-1.54-8.57-3.63"/>
    <path class="cls-1" d="M38.63,71.99l.28-1.35c-3.85.15-7.34,1.72-9.95,4.19l1.13.79c2.28-2.09,5.25-3.43,8.54-3.63"/>
    <path class="cls-1" d="M60.23,85.96l-5.41-.95-1.38-.25c.01.19.01.37.03.56l3.59.64-3.56.63c0,.19,0,.38-.03.56-.27,3.17-1.59,6.03-3.6,8.24-.11.12-.21.23-.31.34l.52.75-.75-.53c-.12.11-.25.23-.37.34l1.12.79,1.88,1.31-1.31-1.88c2.43-2.54,3.97-5.9,4.2-9.62l5.37-.96Z"/>
    <path class="cls-1" d="M50.63,75.39l-.79,1.14c2.02,2.22,3.34,5.07,3.61,8.24l1.39.25c-.23-3.72-1.79-7.08-4.2-9.62"/>
    <path class="cls-1" d="M48.99,77.75h0c-.11-.12-.19-.25-.3-.37l-4.36,6.21-.07.1.13.02,7.63,1.35c-.02-.19-.04-.37-.06-.56-.3-2.58-1.35-4.91-2.98-6.76"/>
    <path class="cls-1" d="M40.42,99.94c-.22.01-.43.03-.65.03l-.2.93-.2-.93c-.23,0-.44-.02-.67-.03l.28,1.34.58,2.79.58-2.79c3.85-.14,7.33-1.71,9.95-4.18l-1.13-.79c-2.28,2.09-5.26,3.43-8.55,3.63"/>
    <path class="cls-1" d="M44.13,88.62c.06-.11.16-.2.21-.31l4.39,6.24c.1-.11.2-.25.29-.37h0c1.62-1.86,2.68-4.19,2.98-6.77.03-.19.05-.38.06-.56l-7.68,1.37h-.05c.28-.64.44-1.35.44-2.11,0-.58-.11-1.13-.29-1.65h0c-.14-.47-.34-.89-.6-1.28-.05-.08-.12-.15-.18-.22-.18-.25-.38-.47-.61-.68-.16-.16-.33-.29-.51-.43-.13-.1-.28-.18-.41-.26-.8-.47-1.71-.75-2.69-.75-.93,0-1.79.26-2.54.68-.22.12-.43.25-.64.4-.12.1-.25.2-.36.3-1.07.97-1.75,2.36-1.75,3.91,0,.71.14,1.38.39,2.01,0,.03.02.06.03.09l-7.61-1.35c.01.19.03.38.05.56.31,2.58,1.37,4.9,2.98,6.76.1.12.19.24.3.36l4.35-6.19c.51,1.07,1.35,1.93,2.41,2.46l-6.18,4.31c.12.12.27.22.4.33,1.93,1.66,4.35,2.72,7.04,2.98.22.02.44.05.67.07l-1.62-7.51c.64.27,1.33.42,2.07.42.78,0,1.51-.18,2.17-.48l-1.6,7.57c.22,0,.44-.04.66-.07,2.67-.25,5.09-1.31,7.01-2.98h0c.13-.11.27-.2.39-.32l-6.22-4.34c.49-.27.96-.58,1.35-.98.35-.35.63-.76.86-1.19"/>
  </g>
</svg>