<?xml version="1.0" encoding="UTF-8"?>
<svg id="Capa_1" data-name="Capa 1" xmlns="http://www.w3.org/2000/svg" viewBox="0 0 170.51 170.51">
  <defs>
    <style>
      .cls-1 {
        fill: #3dae2b;
      }

      .cls-2 {
        fill: #54565a;
      }
    </style>
  </defs>
  <path class="cls-1" d="M85.25,5.81c43.81,0,79.45,35.64,79.45,79.45s-35.64,79.45-79.45,79.45S5.81,129.06,5.81,85.25,41.45,5.81,85.25,5.81M85.25,0C38.17,0,0,38.17,0,85.25s38.17,85.25,85.25,85.25,85.25-38.17,85.25-85.25S132.34,0,85.25,0h0Z"/>
  <g>
    <path class="cls-2" d="M53.49,80.15c-1.41,0-2.82.02-4.23,0-.47,0-.73.19-.89.6-.22.58-.46,1.16-.69,1.73-.14.35-.06.49.32.51.45.02.9,0,1.35,0,1.73,0,3.46,0,5.19,0,.56,0,.61.11.37.61-.46,1-.92,2-1.34,3.01-.19.45-.41.67-.96.66-2.08-.04-4.16,0-6.24-.02-.44,0-.66.14-.83.57-.94,2.42-1.94,4.83-2.89,7.25-.12.31-.29.38-.58.38-2.08,0-4.16,0-6.24,0-.43,0-.49-.08-.33-.49.26-.69.55-1.37.82-2.05.56-1.41,1.11-2.82,1.67-4.23.61-1.53,1.23-3.06,1.84-4.59.55-1.37,1.07-2.75,1.63-4.11.68-1.66,1.85-2.84,3.51-3.53.93-.39,1.89-.49,2.9-.49,3.85.02,7.71,0,11.56,0q.7,0,.42.62c-.45,1.02-.91,2.03-1.35,3.05-.15.36-.36.53-.78.52-1.41-.03-2.82-.01-4.23-.01Z"/>
    <path class="cls-2" d="M109.42,92c-.77,0-1.54,0-2.31,0-.33,0-.46-.07-.3-.43.46-1.09.89-2.2,1.33-3.3.14-.34.04-.48-.34-.49-.92,0-1.83,0-2.75-.01-.35,0-.5.2-.6.46-.45,1.13-.89,2.26-1.32,3.39-.12.3-.28.49-.63.49-1.54,0-3.08,0-4.62-.01-.61,0-.62-.04-.4-.61.72-1.84,1.46-3.68,2.19-5.52.61-1.56,1.23-3.12,1.83-4.68.57-1.46,1.15-2.91,2.46-3.91,1.16-.9,2.46-1.41,3.94-1.41,3.46,0,6.92,0,10.38,0q.61,0,.36.56c-.9,2.02-1.77,4.05-2.59,6.11-.93,2.32-1.92,4.61-2.88,6.92-.28.68-.56,1.36-.82,2.05-.11.28-.28.41-.59.4-.77-.01-1.54,0-2.31,0ZM109.68,79.59h0c-.46,0-.93.01-1.39,0-.31-.01-.5.14-.6.4-.52,1.3-1.03,2.61-1.53,3.91-.16.42-.03.6.42.6.86,0,1.71,0,2.57,0,.29,0,.5-.08.61-.37.54-1.37,1.1-2.73,1.64-4.1.11-.28,0-.45-.33-.45-.46,0-.93,0-1.39,0Z"/>
    <path class="cls-2" d="M78.28,75.96c2.63,0,5.26,0,7.89,0,.6,0,.6.02.35.57-.45,1-.9,2-1.33,3.01-.18.41-.39.64-.9.62-1.02-.04-2.03,0-3.05-.02-.45,0-.74.14-.9.57-.52,1.35-1.06,2.69-1.6,4.03-.54,1.35-1.08,2.71-1.62,4.06-.54,1.36-1.08,2.71-1.62,4.07-.31.76-.63,1.52-.93,2.29-.09.22-.24.3-.47.3-2.12,0-4.24,0-6.37,0-.33,0-.42-.14-.3-.43.71-1.76,1.42-3.51,2.11-5.27.79-1.99,1.55-3.98,2.34-5.97.37-.93.74-1.85,1.13-2.77.28-.67.16-.87-.56-.87-1.16,0-2.33,0-3.49,0-.57,0-.58-.02-.4-.54.36-1.05.73-2.1,1.09-3.15.12-.35.33-.51.74-.5,2.63.02,5.26.01,7.89.01Z"/>
    <path class="cls-2" d="M125.8,75.96c1.7,0,3.4.03,5.1-.01,1.12-.03,2.41.89,2.42,2.33,0,.96-.32,1.81-.66,2.67-.56,1.41-1.1,2.83-1.65,4.24-.4,1.02-1.13,1.71-2.14,2.09-.99.37-2.02.52-3.07.51-1.42-.01-2.85,0-4.27,0-.39,0-.62.09-.76.52-.38,1.12-.82,2.22-1.24,3.33-.13.34-.34.53-.75.49-1.51-.13-3.02-.07-4.53-.12-.52-.02-.54-.03-.35-.5.99-2.51,1.98-5.03,2.97-7.54.45-1.14.9-2.29,1.33-3.43.09-.25.24-.34.49-.34,1.6,0,3.2,0,4.8,0,.29,0,.35.1.25.37-.42,1.09-.83,2.19-1.24,3.28-.15.39-.08.52.33.53.78.02,1.57,0,2.35,0,.24,0,.41-.1.5-.34.53-1.34,1.07-2.68,1.61-4.03.09-.23,0-.37-.24-.39-.14-.01-.29-.01-.44-.01-2.46,0-4.91,0-7.37,0-.62,0-.63-.05-.41-.61.36-.87.71-1.74,1.02-2.63.12-.36.33-.41.65-.41,1.77,0,3.55,0,5.32,0Z"/>
    <path class="cls-2" d="M90.31,92.11c-1.64-.03-3.28.03-4.93-.03-1.68-.06-2.88-1.8-2.18-3.56.79-1.98,1.53-3.99,2.36-5.96.55-1.32.9-2.73,1.71-3.92,1.17-1.72,2.82-2.65,4.91-2.67,3.07-.03,6.13,0,9.2,0,.61,0,.64.06.39.6-.47,1.02-.94,2.05-1.38,3.08-.15.36-.36.51-.75.51-2.12-.01-4.24,0-6.37,0-.77,0-.83.08-1.1.78-.52,1.36-1.08,2.71-1.62,4.07-.32.81-.63,1.62-.95,2.42-.14.35,0,.46.32.46.57,0,1.13,0,1.7,0,1.82,0,3.63,0,5.45,0,.61,0,.61,0,.37.55-.48,1.07-.97,2.13-1.42,3.21-.16.39-.43.47-.78.47-1.29,0-2.59,0-3.88,0-.35,0-.7,0-1.05,0Z"/>
    <path class="cls-2" d="M57.37,95.46c-1.02,0-2.03,0-3.05,0-.52,0-.57-.05-.38-.55.26-.69.55-1.37.82-2.05.63-1.58,1.26-3.17,1.89-4.75.81-2.03,1.62-4.05,2.42-6.08.54-1.36,1.06-2.72,1.59-4.08.23-.58.48-1.15.7-1.73.08-.2.2-.26.39-.26,2.18,0,4.36,0,6.54,0,.3,0,.35.12.25.38-.38.95-.76,1.91-1.13,2.86-.63,1.58-1.26,3.17-1.89,4.75-.52,1.32-1.04,2.63-1.57,3.95-.55,1.37-1.1,2.73-1.65,4.1-.42,1.06-.85,2.12-1.26,3.18-.1.26-.3.28-.53.28-1.05,0-2.09,0-3.14,0Z"/>
    <path class="cls-2" d="M125.52,94.88c-.88.36-1.79.29-2.68.36-1.98.16-3.97.27-5.95.41-1.67.11-3.33.24-5,.33-.41.02-.68-.08-.78-.5-.1-.46-.41-.54-.84-.54-9.16,0-18.32,0-27.47,0-.2,0-.41-.01-.61,0-.29.01-.38-.14-.38-.4,0-.25.07-.43.37-.42.17,0,.35,0,.52,0,9.17,0,18.35,0,27.52,0,.45,0,.92.07,1.08-.54.06-.22.31-.22.53-.19,2.29.29,4.59.53,6.88.76,1.78.18,3.55.41,5.32.6.5.06,1,.08,1.5.12Z"/>
    <path class="cls-2" d="M124.73,90.54c-.31.35-.48.73-.68,1.09-.1.17-.2.34-.42.31-.25-.04-.22-.27-.25-.45-.03-.19-.03-.38-.07-.56-.02-.12-.04-.28-.22-.27-.16,0-.21.14-.24.27-.03.2-.06.4-.08.6-.02.15-.06.29-.2.37-.22.14-.46.03-.4-.21.16-.65.16-1.33.42-1.95.17-.4.56-.2.85-.21.26-.01.31.19.34.41.03.2-.08.52.18.56.24.04.34-.26.44-.47.24-.49.62-.65,1.14-.51.19.05.22.17.19.33-.11.58-.23,1.16-.35,1.74-.06.28-.24.45-.54.35-.31-.09-.18-.35-.14-.55.06-.27.19-.54,0-.87Z"/>
    <path class="cls-2" d="M126.04,91.91c.11-.35.35-.54.56-.76.32-.34.4-.67.11-1.09-.09-.13-.35-.35-.08-.5.21-.12.47-.09.66.14.35.42.36.42.73.04.09-.09.18-.19.32-.21.1-.02.21-.03.28.06.09.11,0,.21-.07.26-.69.54-.69,1.13-.17,1.78.07.09.13.25-.02.29-.22.07-.47.08-.65-.11-.08-.08-.11-.2-.17-.3-.18-.27-.35-.35-.61-.06-.46.52-.47.51-.9.44Z"/>
  </g>
</svg>