<?xml version="1.0" encoding="UTF-8"?>
<svg id="Capa_1" data-name="Capa 1" xmlns="http://www.w3.org/2000/svg" viewBox="0 0 170.51 170.51">
  <defs>
    <style>
      .cls-1 {
        fill: #3dae2b;
      }

      .cls-2 {
        fill: #54565a;
      }
    </style>
  </defs>
  <path class="cls-1" d="M85.25,5.81c43.81,0,79.45,35.64,79.45,79.45s-35.64,79.45-79.45,79.45S5.81,129.06,5.81,85.25,41.45,5.81,85.25,5.81M85.25,0C38.17,0,0,38.17,0,85.25s38.17,85.25,85.25,85.25,85.25-38.17,85.25-85.25S132.34,0,85.25,0h0Z"/>
  <g>
    <path class="cls-2" d="M38.48,76.74c-.71.05-1.35.13-1.89.24-.56.11-1.08.26-1.56.43-.49.19-.94.42-1.35.68-2.85,1.67-4.29,5.01-4.29,9.92,0,2.03.24,3.76.7,5.15.48,1.41,1.25,2.61,2.28,3.58.48.45.99.84,1.51,1.14.52.3,1.12.55,1.76.73.65.18,1.39.31,2.19.39.81.07,1.76.11,2.84.11h8.58v-13.15h-11.14v3.89h6.83v5.37h-3.81c-.91,0-1.7-.04-2.33-.11-.61-.07-1.16-.2-1.62-.37-.44-.17-.82-.39-1.13-.67-.31-.28-.62-.65-.91-1.1-.23-.37-.42-.73-.58-1.08-.15-.36-.28-.77-.38-1.21-.08-.42-.16-.92-.2-1.48l-.02-.25c-.03-.37-.04-.55-.04-.91-.05-3.36.85-5.62,2.63-6.69.28-.17.54-.3.79-.4.24-.1.52-.18.84-.24.32-.06.72-.1,1.18-.12.47-.02,1.07-.03,1.8-.03h8.1v-3.88h-8.41c-.85,0-1.65.02-2.35.06"/>
    <rect class="cls-2" x="52.24" y="76.68" width="4.32" height="22.44"/>
    <path class="cls-2" d="M63.86,93.91c-.34-.39-.58-.92-.73-1.56-.15-.7-.22-1.69-.22-3.04v-12.59h-4.32v13.42c0,.84.03,1.6.1,2.25.07.67.17,1.28.31,1.8.15.54.35,1.03.6,1.46.25.42.56.82.9,1.18.8.83,1.78,1.44,2.91,1.79,1.09.34,2.53.51,4.26.51h5.82v-3.89h-5.12c-2.18,0-3.7-.45-4.51-1.33"/>
    <path class="cls-2" d="M90.93,88.18c0,1.14-.1,2.18-.3,3.1-.2.89-.51,1.65-.94,2.26-.45.72-1.08,1.26-1.86,1.59-.8.34-1.86.51-3.15.51h-5.27v-15.47h5.03c1.29,0,2.34.14,3.09.4.72.26,1.33.69,1.78,1.27.5.66.89,1.54,1.18,2.61.29,1.1.44,2.35.44,3.73M95.45,87.69c0-1.88-.23-3.51-.69-4.86-.46-1.36-1.2-2.58-2.22-3.61-.49-.49-.99-.91-1.49-1.24-.52-.33-1.11-.6-1.77-.79-.65-.19-1.42-.32-2.28-.4-.82-.08-1.84-.11-3.03-.11h-8.88v22.44h9.21c.92,0,1.72-.02,2.35-.05.65-.03,1.24-.09,1.74-.18.52-.1.99-.22,1.39-.38.41-.16.84-.36,1.25-.61,1.46-.84,2.58-2.14,3.32-3.87.73-1.7,1.1-3.84,1.1-6.35"/>
    <path class="cls-2" d="M109.6,89.98h-7.21l2.99-7.21.26-.67c.13-.32.24-.62.42-1.04l3.54,8.92ZM105.3,76.67c-.23,0-.82.05-1.44.5-.71.52-1.13,1.48-1.25,1.86h0s-8.51,20.09-8.51,20.09h4.55l1.79-4.3c.21-.53.53-1.07.64-1.17.17-.14.4-.21.69-.21.1,0,.19.01.26.02h.02s8.99,0,8.99,0l1.78,4.45c.1.23.3.64.55.87.28.25.69.37,1.36.37.13,0,.23,0,.23,0l2.88-.02-9.12-22.43h-3.43Z"/>
    <path class="cls-2" d="M134.84,92.44l-9.31-13.53-.03-.03s-1.01-1.19-1.6-1.71c-.23-.2-.69-.47-1.94-.47-.21,0-.35,0-.43,0l-2.26-.03v22.46h4.16v-15.71l9.23,13.28c.32.52,1.13,1.76,1.76,2.09.62.33,1.45.35,1.6.35h2.98v-22.45h-4.16v15.77Z"/>
    <path class="cls-2" d="M142.29,78.67v-.68h.46c.23,0,.51.03.51.32,0,.33-.26.36-.55.36h-.42ZM143.64,78.34c0-.48-.29-.67-.85-.67h-.88v2.34h.38v-1h.36l.59,1h.43l-.65-1.03c.35-.04.61-.22.61-.64"/>
    <path class="cls-2" d="M142.71,80.54c-1,0-1.62-.79-1.62-1.75,0-1.02.71-1.74,1.62-1.74s1.61.71,1.61,1.74-.72,1.75-1.61,1.75M142.71,76.68c-1.11,0-2.06.85-2.06,2.11s.86,2.11,2.06,2.11c1.1,0,2.05-.84,2.05-2.11s-.95-2.11-2.05-2.11"/>
  </g>
</svg>