<?xml version="1.0" encoding="UTF-8"?>
<svg id="Capa_1" data-name="Capa 1" xmlns="http://www.w3.org/2000/svg" viewBox="0 0 208.59 208.59">
  <defs>
    <style>
      .cls-1 {
        fill: #3dae2b;
      }

      .cls-2 {
        fill: #54565a;
      }
    </style>
  </defs>
  <path class="cls-1" d="M104.3,7.11c53.59,0,97.19,43.6,97.19,97.19s-43.6,97.19-97.19,97.19S7.11,157.89,7.11,104.3,50.7,7.11,104.3,7.11M104.3,0C46.69,0,0,46.69,0,104.3s46.69,104.3,104.3,104.3,104.3-46.69,104.3-104.3S161.9,0,104.3,0h0Z"/>
  <g id="dFyI2y.tif">
    <path class="cls-2" d="M109.26,59.27c.83-8.2,12.74-9.55,16.81-3.17.89,1.4.95,4.29,1.29,4.63.48.47,3.44,1.18,4.36,1.55,20.12,8.16,32.24,22.9,33.33,45.1.25,5.11.22,17.12-3.43,20.87-4.12,4.25-10.63,2.1-15.74,1.7-2.24-.17-4.55-.25-6.8-.26-11.22,14.31-28.47,23.6-47.05,22.35-9.59-.64-12.42-4.44-19.99-8.65-8.63-4.8-22.96-7.26-32.46-4.26-.98.31-1.96,1.21-2.98,1.37-4.26.67-6.72-3.94-4-7.11,1.47-1.71,5.51-4.42,7.5-5.88,5.88-4.32,12.2-8.06,18-12.5,1.73-12.27,5.07-25.68,12.35-35.88,8.83-12.35,24.22-17.92,38.8-19.87ZM122.39,59.32c-.17-3.21-7.04-3.66-8.09-1.08-.25.63.42.45.78.47.93.05,1.72-.32,2.45-.29,1.53.06,3.35.56,4.86.9ZM125.49,124.03c1.01-4.24,2.19-8.45,2.97-12.74,2.35-12.92,3.99-31.3-4.26-42.43-1.05-1.42-5.12-5.71-6.83-5.66-1.47.05-5.53,1.61-7.03,2.28-17.67,7.96-25.12,31.29-27.41,49.08l.7.45c13.95,3.01,27.67,7.16,41.86,9.02ZM101.84,65.23c-7.66,1.91-15.88,5.1-21.94,10.27-10.67,9.11-14.87,24.89-16.97,38.26,5.21-.29,10.4-.26,15.56.63,2.39-18.19,8.54-37.37,23.35-49.16ZM129.86,124.65c4.26.56,8.65.32,12.92.63,3.61.27,7.68,1.15,11.2,1.25,4.56.14,5.32-1.77,6-5.85,1.42-8.63.76-19.32-2.09-27.61-4.77-13.92-16.72-22.82-30.2-27.53.89,1.91,2.16,3.57,3.07,5.49,6.14,13,4.34,30.64,1.5,44.35-.64,3.11-1.47,6.24-2.39,9.27ZM133.28,129.33c-17.74-.61-34.62-7.28-51.93-10.17-6.68-1.11-13.94-2.08-20.57-.53-5.89,4.44-12.2,8.32-18.18,12.63-1.54,1.11-3.34,2.28-4.57,3.67,9.94-2.9,23.73-1.54,33.11,2.85,4.6,2.15,8.65,6.11,13.19,7.97,14.44,5.91,37.78-2.66,47.56-14.23.24-.28,1.63-1.97,1.39-2.18Z"/>
  </g>
</svg>