<?xml version="1.0" encoding="UTF-8"?>
<svg id="Capa_1" data-name="Capa 1" xmlns="http://www.w3.org/2000/svg" viewBox="0 0 170.51 170.51">
  <defs>
    <style>
      .cls-1 {
        fill: #54565a;
      }
    </style>
  </defs>
  <path class="cls-1" d="M85.25,5.81c43.81,0,79.45,35.64,79.45,79.45s-35.64,79.45-79.45,79.45S5.81,129.06,5.81,85.25,41.45,5.81,85.25,5.81M85.25,0C38.17,0,0,38.17,0,85.25s38.17,85.25,85.25,85.25,85.25-38.17,85.25-85.25S132.34,0,85.25,0h0Z"/>
  <g>
    <path class="cls-1" d="M65.76,85.39c0,1.71-1.27,2.74-3.39,2.74h-4.2v-5.37h4.23c2.17,0,3.37.93,3.37,2.63M65.31,90.8c2.48-.88,3.89-2.88,3.89-5.53,0-1.52-.54-2.96-1.47-3.93-1.2-1.27-3.04-1.96-5.2-1.96h-7.79v18.76h3.42v-6.66h3.45l4.62,6.54.09.13h4.22l-5.23-7.34Z"/>
    <polygon class="cls-1" points="39.49 94.81 39.49 90.16 48.73 90.16 48.73 86.82 39.49 86.82 39.49 82.74 49.35 82.74 49.35 79.4 35.96 79.4 35.96 98.14 49.47 98.14 49.47 94.81 39.49 94.81"/>
    <path class="cls-1" d="M25.92,79.05v12.4c0,3.04-.65,3.36-2.14,3.36-1.81,0-2.15-1.01-2.2-3.14l-.04-1.23h-3.49v.98c-.03,2.4.51,4.12,1.63,5.26.95.97,2.28,1.46,3.96,1.46,3.96,0,5.8-1.91,5.8-6.01v-13.08h-3.53Z"/>
    <polygon class="cls-1" points="75.13 94.87 85.11 82.81 75.91 82.81 75.91 79.33 90.55 79.33 90.55 82.6 80.57 94.66 90.81 94.66 90.81 98.14 75.13 98.14 75.13 94.87"/>
    <polygon class="cls-1" points="99.52 94.81 99.52 90.16 108.75 90.16 108.75 86.82 99.52 86.82 99.52 82.74 109.38 82.74 109.38 79.4 95.99 79.4 95.99 98.14 109.5 98.14 109.5 94.81 99.52 94.81"/>
    <polygon class="cls-1" points="118.54 94.81 118.54 90.16 127.78 90.16 127.78 86.82 118.54 86.82 118.54 82.74 128.41 82.74 128.41 79.4 115.02 79.4 115.02 98.14 128.52 98.14 128.52 94.81 118.54 94.81"/>
    <path class="cls-1" d="M143.66,84.93c-.08-2.14-1.96-2.9-3.55-2.9-2.11,0-3.18.79-3.18,2.35,0,.41,0,1.17,1.76,1.6l4.05,1.01c2.34.63,5.03,1.81,5.03,5.37,0,.74-.15,2.17-1.19,3.45-1.24,1.54-3.31,2.33-6.13,2.33-2.61,0-4.7-.74-6.02-2.14-1.13-1.2-1.66-2.8-1.57-4.77,0,0,3.52-.17,3.52.07-.02,1.07.23,1.85.77,2.41.7.73,1.94,1.09,3.67,1.09,1.32,0,3.41-.66,3.41-2.42,0-.39,0-1.42-2.67-2.07l-3.69-.92c-1.92-.49-4.48-1.53-4.48-5,0-2.12,1.41-5.7,6.68-5.7,2.24,0,4.19.73,5.49,2.05,1.07,1.09,1.63,2.52,1.61,4.15l-3.53.03Z"/>
    <path class="cls-1" d="M149.89,95.97h.28c.3,0,.58-.09.58-.34,0-.2-.15-.36-.54-.36l-.32.03v.67ZM149.89,97.19h-.42v-2.17c.23-.04.48-.06.79-.06.38,0,.56.06.7.17.13.09.23.26.23.47,0,.26-.2.43-.44.51v.02c.19.08.3.25.36.53.07.32.12.46.18.53h-.43c-.07-.08-.13-.27-.19-.56-.05-.25-.2-.35-.51-.35h-.27v.91ZM150.27,94.35c-.97,0-1.72.76-1.72,1.7s.75,1.71,1.75,1.71c.96.01,1.69-.75,1.69-1.7s-.73-1.71-1.7-1.71h-.01ZM150.3,93.99c1.21,0,2.16.91,2.16,2.06s-.95,2.09-2.17,2.09-2.2-.91-2.2-2.09.97-2.06,2.2-2.06h.01Z"/>
  </g>
</svg>