<?xml version="1.0" encoding="UTF-8"?>
<svg id="Capa_1" data-name="Capa 1" xmlns="http://www.w3.org/2000/svg" viewBox="0 0 170.51 170.51">
  <defs>
    <style>
      .cls-1 {
        fill: #54565a;
      }
    </style>
  </defs>
  <path class="cls-1" d="M85.25,5.81c43.81,0,79.45,35.64,79.45,79.45s-35.64,79.45-79.45,79.45S5.81,129.06,5.81,85.25,41.45,5.81,85.25,5.81M85.25,0C38.17,0,0,38.17,0,85.25s38.17,85.25,85.25,85.25,85.25-38.17,85.25-85.25S132.34,0,85.25,0h0Z"/>
  <g>
    <g>
      <path class="cls-1" d="M69.25,80.48h2.62c1.58,0,2.62.84,2.62,2.22v.02c0,1.51-1.26,2.29-2.75,2.29h-1.7v2.47h-.79v-7ZM71.77,84.29c1.16,0,1.92-.62,1.92-1.54v-.02c0-1-.75-1.52-1.88-1.52h-1.77v3.08h1.73Z"/>
      <path class="cls-1" d="M76.69,80.48h.79v6.27h3.94v.73h-4.73v-7Z"/>
      <path class="cls-1" d="M86.22,80.43h.74l3.19,7.05h-.85l-.82-1.85h-3.81l-.83,1.85h-.81l3.19-7.05ZM88.17,84.91l-1.59-3.56-1.6,3.56h3.19Z"/>
      <path class="cls-1" d="M94.48,84.71l-2.91-4.23h.96l2.36,3.5,2.38-3.5h.92l-2.91,4.22v2.78h-.8v-2.77Z"/>
      <path class="cls-1" d="M100.2,80.48h5.06v.72h-4.27v2.39h3.82v.72h-3.82v2.45h4.32v.72h-5.11v-7Z"/>
      <path class="cls-1" d="M107.66,80.48h3.01c.86,0,1.55.26,1.99.7.34.34.54.83.54,1.38v.02c0,1.16-.8,1.84-1.9,2.04l2.15,2.86h-.97l-2.03-2.72h-2v2.72h-.79v-7ZM110.6,84.05c1.05,0,1.8-.54,1.8-1.44v-.02c0-.86-.66-1.38-1.79-1.38h-2.16v2.84h2.15Z"/>
      <path class="cls-1" d="M117.83,84.71l-2.91-4.23h.96l2.36,3.5,2.38-3.5h.92l-2.91,4.22v2.78h-.8v-2.77Z"/>
      <path class="cls-1" d="M125.41,81.21h-2.35v-.73h5.5v.73h-2.35v6.27h-.8v-6.27Z"/>
      <path class="cls-1" d="M130.79,80.48h5.06v.72h-4.27v2.39h3.82v.72h-3.82v2.45h4.32v.72h-5.11v-7Z"/>
      <path class="cls-1" d="M138.25,80.48h5.06v.72h-4.27v2.39h3.82v.72h-3.82v2.45h4.32v.72h-5.11v-7Z"/>
      <path class="cls-1" d="M145.24,86.46l.49-.58c.73.66,1.43.99,2.4.99s1.56-.5,1.56-1.19v-.02c0-.65-.35-1.02-1.82-1.33-1.61-.35-2.35-.87-2.35-2.02v-.02c0-1.1.97-1.91,2.3-1.91,1.02,0,1.75.29,2.46.86l-.46.61c-.65-.53-1.3-.76-2.02-.76-.91,0-1.49.5-1.49,1.13v.02c0,.66.36,1.03,1.9,1.36,1.56.34,2.28.91,2.28,1.98v.02c0,1.2-1,1.98-2.39,1.98-1.11,0-2.02-.37-2.86-1.12Z"/>
      <path class="cls-1" d="M80.79,96.01v-.02c0-1.93,1.45-3.62,3.58-3.62s3.56,1.67,3.56,3.6v.02c0,1.93-1.45,3.62-3.58,3.62s-3.56-1.67-3.56-3.6ZM87.11,96.01v-.02c0-1.59-1.16-2.89-2.76-2.89s-2.74,1.28-2.74,2.87v.02c0,1.59,1.16,2.89,2.76,2.89s2.74-1.28,2.74-2.87Z"/>
      <path class="cls-1" d="M90.24,96.56v-4.07h.79v4.02c0,1.51.81,2.36,2.14,2.36s2.11-.78,2.11-2.31v-4.07h.79v4.01c0,2.04-1.17,3.1-2.92,3.1s-2.91-1.06-2.91-3.04Z"/>
      <path class="cls-1" d="M100.55,93.22h-2.35v-.73h5.5v.73h-2.35v6.27h-.8v-6.27Z"/>
      <path class="cls-1" d="M105.94,92.49h2.43c2.2,0,3.72,1.51,3.72,3.48v.02c0,1.97-1.52,3.5-3.72,3.5h-2.43v-7ZM106.73,93.22v5.54h1.64c1.77,0,2.9-1.2,2.9-2.75v-.02c0-1.55-1.13-2.77-2.9-2.77h-1.64Z"/>
      <path class="cls-1" d="M114.2,96.01v-.02c0-1.93,1.45-3.62,3.58-3.62s3.56,1.67,3.56,3.6v.02c0,1.93-1.45,3.62-3.58,3.62s-3.56-1.67-3.56-3.6ZM120.52,96.01v-.02c0-1.59-1.16-2.89-2.76-2.89s-2.74,1.28-2.74,2.87v.02c0,1.59,1.16,2.89,2.76,2.89s2.74-1.28,2.74-2.87Z"/>
      <path class="cls-1" d="M123.46,96.01v-.02c0-1.93,1.45-3.62,3.58-3.62s3.56,1.67,3.56,3.6v.02c0,1.93-1.45,3.62-3.58,3.62s-3.56-1.67-3.56-3.6ZM129.78,96.01v-.02c0-1.59-1.16-2.89-2.76-2.89s-2.74,1.28-2.74,2.87v.02c0,1.59,1.16,2.89,2.76,2.89s2.74-1.28,2.74-2.87Z"/>
      <path class="cls-1" d="M133.02,92.49h3.01c.86,0,1.55.26,1.99.7.34.34.54.83.54,1.38v.02c0,1.16-.8,1.84-1.9,2.04l2.15,2.86h-.97l-2.03-2.72h-2v2.72h-.79v-7ZM135.96,96.06c1.05,0,1.8-.54,1.8-1.44v-.02c0-.86-.66-1.38-1.79-1.38h-2.16v2.84h2.15Z"/>
    </g>
    <g>
      <path class="cls-1" d="M40.88,108.17c-9.7,0-17.83-7.31-18.79-16.92-1.04-10.4,6.3-19.57,16.68-20.77,2.2-.25,4.42-.16,6.58.43,1.1.3,1.79,1.11,1.84,2.1.05.95-.53,1.86-1.42,2.25-.54.23-1.1.19-1.65.08-8.24-1.68-15.62,3.15-17.32,11.33-1.56,7.53,3.81,15.38,11.4,16.68,7.95,1.35,15.06-3.46,16.72-11.33.16-.77.22-1.57.26-2.37.08-1.47.99-2.44,2.36-2.41,1.34.02,2.25,1.05,2.25,2.53-.02,7.93-5.72,15.37-13.51,17.64-.73.21-1.48.38-2.23.53-1.04.2-2.1.24-3.17.25Z"/>
      <path class="cls-1" d="M58.73,78.84c0,1.94-1.7,3.61-3.63,3.59-1.96-.02-3.61-1.71-3.57-3.65.04-1.93,1.66-3.54,3.58-3.55,1.93-.01,3.62,1.67,3.62,3.6Z"/>
    </g>
  </g>
</svg>