<?xml version="1.0" encoding="UTF-8"?>
<svg id="Capa_1" data-name="Capa 1" xmlns="http://www.w3.org/2000/svg" viewBox="0 0 208.59 208.59">
  <defs>
    <style>
      .cls-1 {
        fill: #54565a;
      }
    </style>
  </defs>
  <path class="cls-1" d="M104.3,7.11c53.59,0,97.19,43.6,97.19,97.19s-43.6,97.19-97.19,97.19S7.11,157.89,7.11,104.3,50.7,7.11,104.3,7.11M104.3,0C46.69,0,0,46.69,0,104.3s46.69,104.3,104.3,104.3,104.3-46.69,104.3-104.3S161.9,0,104.3,0h0Z"/>
  <path class="cls-1" d="M68.82,109.34c-.86.58-1.58,1.6-2.78,1.1l-21.39-10.71c-.72-.45-1.29-1.24-1.01-2.12l17.25-40.93c.39-.3.84-.51,1.29-.71,6.54-2.93,15.99-4.71,21.97-7.95,1.54-.83,4.04-4.63,5.48-4.66,1.32-.02,3.01,2.07,4.2,2.87,6.81,4.59,14.42,4.59,21.24,0,1.23-.83,2.99-3.08,4.43-2.85,1.31.21,3.73,3.82,5.25,4.64,5.95,3.23,15.46,5.04,21.97,7.95.44.2,1.1.47,1.39.85,4.91,12.37,10.68,24.43,15.56,36.8.63,1.59,2.32,4.36,1.1,5.71l-21.91,11.12c-1.2.5-1.92-.52-2.78-1.1v54.14c0,.71-1.77,1.99-2.61,1.71h-66.05c-.84.28-2.61-1-2.61-1.71v-54.14ZM135.77,160.86c.45-20.7-.59-41.48-.01-62.18.11-3.93.28-8.07.63-12.02.25-2.82,1-9.83,2-12.19,1-2.33,3.69-1.87,4.1.53-.71,3.65-1.41,7.32-1.78,11.04-.28,2.85-1.16,13.49-.45,15.56.08.24,2.41,3.77,2.61,3.89.83.52,15.46-7.72,17.52-8.65l-15.52-36.87-22.27-8.27-3.59-3.1c-8.78,6.77-20.12,6.98-28.89.07-.78-.26-1.55.72-1.1,1.43.24.37,4.11,2.89,4.79,3.24,6.55,3.45,13.54,3.39,20.27.51,1.67-.72,3.69-2.71,5.66-1.75,1.01.49.77,2.65-.02,3.38-2.03,1.88-8.24,3.95-11.03,4.4-8.98,1.46-16.99-1.82-23.67-7.63l-20.63,7.44-.57.67c-4.4,11.42-9.86,22.45-14.27,33.86-.25.65-1.24,2.53-.79,2.91,2.16.69,16.48,8.87,17.29,8.36.2-.12,2.53-3.65,2.61-3.89.7-2.07-.17-12.72-.45-15.56-.37-3.73-1.05-7.43-1.84-11.09.51-2.33,3.17-2.8,4.15-.48s1.76,9.43,2,12.19c.36,4.03.52,8.3.63,12.32.57,20.59-.45,41.27-.01,61.87h62.63Z"/>
</svg>