<?xml version="1.0" encoding="UTF-8"?>
<svg id="Capa_1" data-name="Capa 1" xmlns="http://www.w3.org/2000/svg" viewBox="0 0 170.51 170.51">
  <defs>
    <style>
      .cls-1 {
        fill: #3dae2b;
      }

      .cls-2 {
        fill: #54565a;
      }
    </style>
  </defs>
  <path class="cls-1" d="M85.25,5.81c43.81,0,79.45,35.64,79.45,79.45s-35.64,79.45-79.45,79.45S5.81,129.06,5.81,85.25,41.45,5.81,85.25,5.81M85.25,0C38.17,0,0,38.17,0,85.25s38.17,85.25,85.25,85.25,85.25-38.17,85.25-85.25S132.34,0,85.25,0h0Z"/>
  <g>
    <g>
      <path class="cls-2" d="M145.68,97.59c-1.19,0-2.15-.96-2.15-2.15s.97-2.15,2.15-2.15,2.16.97,2.16,2.15-.97,2.15-2.16,2.15M145.68,93.7c-.96,0-1.74.78-1.74,1.73s.78,1.73,1.74,1.73,1.74-.78,1.74-1.73-.78-1.73-1.74-1.73"/>
      <path class="cls-2" d="M35.4,84.79c0,1.81-.44,3.21-1.32,4.19-.88.98-2.11,1.47-3.68,1.47-.42,0-.87-.05-1.36-.17-.49-.11-.9-.31-1.24-.61v4.18h-3.32v-15.47h3.19l.08,1.76c.26-.61.73-1.09,1.4-1.46.67-.36,1.4-.54,2.2-.54,1.09,0,2.04.4,2.84,1.2.8.8,1.2,2.16,1.2,4.06v1.39ZM31.97,84.61v-.79c0-1.29-.17-2.16-.52-2.64-.35-.47-.82-.71-1.42-.71-.47,0-.91.13-1.33.41-.42.27-.72.56-.9.87v5.77c.06.27.27.53.64.78.37.25.83.38,1.39.38.49,0,.97-.25,1.44-.75.47-.5.7-1.61.7-3.32"/>
      <rect class="cls-2" x="37.25" y="74.66" width="3.32" height="15.64"/>
      <path class="cls-2" d="M53.18,90.3h-3.11l-.06-1.55c-.25.5-.68.9-1.29,1.22-.6.32-1.3.48-2.11.48-1.32,0-2.33-.33-3-.99-.68-.66-1.02-1.67-1.02-3.02v-.2c0-1.33.45-2.36,1.36-3.08.91-.72,2.13-1.08,3.66-1.08.46,0,.92.07,1.37.2.45.14.78.3.99.51v-1.17c0-.41-.19-.75-.56-1.04-.37-.28-.9-.42-1.59-.42-.73,0-1.39.08-1.97.24-.57.16-1.07.36-1.5.61v-2.04c.55-.22,1.16-.41,1.83-.57.68-.16,1.5-.24,2.46-.24,1.54,0,2.69.35,3.42,1.04.74.69,1.11,1.8,1.11,3.33v7.79ZM49.98,86.31v-.32c0-.72-.17-1.27-.51-1.64-.34-.38-.84-.56-1.51-.56-.62,0-1.12.18-1.48.54-.36.36-.55.92-.55,1.69v.32c0,.81.19,1.35.58,1.62.39.27.88.4,1.47.4.51,0,.97-.16,1.38-.49.41-.33.61-.84.61-1.55"/>
      <polygon class="cls-2" points="66.13 78.37 59.22 93.85 56.48 93.85 58.37 89.83 53.7 78.37 57.08 78.37 60.12 86.38 63.42 78.37 66.13 78.37"/>
      <path class="cls-2" d="M78.2,84.98h-8.13c0,1.33.3,2.25.9,2.77.6.52,1.39.78,2.35.78.64,0,1.29-.08,1.96-.24.67-.16,1.36-.41,2.06-.73v1.99c-.61.34-1.28.59-2.02.77-.74.17-1.59.26-2.55.26-1.84,0-3.31-.49-4.41-1.47-1.1-.98-1.64-2.41-1.64-4.29v-.85c0-1.64.5-3.04,1.5-4.18,1-1.14,2.46-1.71,4.36-1.71s3.21.53,4.17,1.61c.96,1.07,1.45,2.47,1.45,4.19v1.11ZM75.11,83.27c-.07-1.17-.33-2.01-.78-2.52-.45-.51-1.03-.76-1.75-.76-.63,0-1.19.25-1.69.75-.5.5-.77,1.35-.81,2.53h5.02Z"/>
      <path class="cls-2" d="M88.91,82h-3.07c0-.34-.07-.63-.21-.87-.14-.24-.42-.36-.84-.36s-.73.11-1,.32c-.27.21-.45.44-.53.68v8.53h-3.32v-11.93h3.19l.06,1.89c.31-.68.71-1.2,1.21-1.57.49-.37,1.08-.55,1.75-.55,1.01,0,1.76.33,2.25.99.5.66.66,1.62.49,2.88"/>
      <polygon class="cls-2" points="100.86 78.37 93.96 93.85 91.21 93.85 93.1 89.83 88.43 78.37 91.81 78.37 94.85 86.38 98.15 78.37 100.86 78.37"/>
      <path class="cls-2" d="M108.63,80.43h-3.16v6.11c0,.62.1,1.08.31,1.37.21.29.61.43,1.2.43.28,0,.56-.02.82-.06.26-.05.51-.1.73-.17v1.86c-.35.15-.79.25-1.3.32-.52.07-1.03.1-1.52.1-1.09,0-1.96-.35-2.6-1.05-.64-.7-.96-1.71-.96-3.02v-5.92h-1.42v-1.7l1.55-.09,1.11-3.97h2.08v3.95h3.16v1.82Z"/>
      <path class="cls-2" d="M120.62,84.98h-8.13c0,1.33.3,2.25.9,2.77.6.52,1.39.78,2.35.78.64,0,1.29-.08,1.96-.24.67-.16,1.36-.41,2.06-.73v1.99c-.61.34-1.28.59-2.02.77-.74.17-1.59.26-2.55.26-1.84,0-3.32-.49-4.41-1.47-1.09-.98-1.64-2.41-1.64-4.29v-.85c0-1.64.5-3.04,1.5-4.18,1-1.14,2.46-1.71,4.36-1.71s3.21.53,4.17,1.61c.96,1.07,1.45,2.47,1.45,4.19v1.11ZM117.54,83.27c-.07-1.17-.33-2.01-.78-2.52-.45-.51-1.03-.76-1.75-.76-.63,0-1.19.25-1.69.75-.5.5-.77,1.35-.81,2.53h5.02Z"/>
      <path class="cls-2" d="M133.35,84.98h-8.13c0,1.33.3,2.25.9,2.77.6.52,1.38.78,2.35.78.64,0,1.29-.08,1.96-.24.67-.16,1.36-.41,2.07-.73v1.99c-.61.34-1.28.59-2.02.77-.74.17-1.59.26-2.55.26-1.84,0-3.31-.49-4.41-1.47-1.1-.98-1.65-2.41-1.65-4.29v-.85c0-1.64.5-3.04,1.5-4.18,1-1.14,2.46-1.71,4.37-1.71s3.21.53,4.17,1.61c.97,1.07,1.45,2.47,1.45,4.19v1.11ZM130.27,83.27c-.07-1.17-.33-2.01-.78-2.52-.45-.51-1.03-.76-1.75-.76-.63,0-1.2.25-1.69.75-.49.5-.76,1.35-.81,2.53h5.03Z"/>
      <path class="cls-2" d="M142.99,86.67c0,1.11-.4,2.03-1.21,2.77-.8.74-2.13,1.11-3.97,1.11-.77,0-1.47-.06-2.1-.19-.63-.13-1.09-.29-1.37-.47v-2.1c.32.19.79.37,1.38.57.6.19,1.21.28,1.83.28.8,0,1.41-.14,1.84-.4.43-.27.64-.62.64-1.04s-.14-.74-.43-1c-.29-.26-1.01-.56-2.17-.91-1.09-.33-1.84-.79-2.24-1.38-.39-.59-.59-1.36-.59-2.3s.35-1.77,1.06-2.43c.71-.66,1.82-.99,3.35-.99.71,0,1.31.05,1.79.16.49.11.95.26,1.38.46v1.93c-.31-.18-.76-.33-1.33-.45-.57-.12-1.13-.18-1.65-.18-.61,0-1.1.11-1.48.31-.38.21-.57.49-.57.85,0,.41.15.69.44.86.29.16.94.39,1.96.69,1.29.38,2.19.88,2.69,1.49.51.62.76,1.41.76,2.37"/>
      <path class="cls-2" d="M144.94,94.41h.88c.14,0,.26.02.36.07.18.08.27.23.27.45,0,.11-.02.21-.07.28-.05.07-.11.13-.2.18.07.03.13.07.17.12.04.05.06.13.06.24v.26c.01.07.02.13.03.17.01.06.04.1.08.12v.04h-.32s-.02-.04-.02-.06c0-.03,0-.08-.01-.15l-.02-.32c0-.13-.05-.21-.13-.25-.05-.02-.13-.03-.23-.03h-.58v.82h-.26v-1.92ZM145.79,95.29c.12,0,.21-.02.28-.07.07-.05.1-.14.1-.27,0-.14-.05-.23-.14-.28-.05-.03-.12-.04-.21-.04h-.62v.66h.59Z"/>
      <rect class="cls-2" x="24.31" y="98.22" width=".33" height="4.4"/>
      <polygon class="cls-2" points="26.96 98.22 27.27 98.22 30.31 102.05 30.31 98.22 30.62 98.22 30.62 102.62 30.38 102.62 27.28 98.71 27.28 102.62 26.96 102.62 26.96 98.22"/>
      <polygon class="cls-2" points="32.9 98.22 33.21 98.22 36.25 102.05 36.25 98.22 36.56 98.22 36.56 102.62 36.32 102.62 33.22 98.71 33.22 102.62 32.9 102.62 32.9 98.22"/>
      <path class="cls-2" d="M40.86,102.69c-.34,0-.64-.06-.91-.19-.27-.12-.5-.29-.69-.5-.19-.21-.34-.45-.45-.72-.1-.27-.16-.56-.16-.86h0c0-.31.05-.6.16-.88.11-.27.26-.52.45-.73.19-.21.43-.38.7-.5.27-.12.58-.19.91-.19s.63.06.91.19c.27.12.51.29.7.5.19.21.34.45.45.72.1.27.16.56.16.86,0,0,0,0,0,.01,0,.3-.05.59-.16.86-.11.27-.26.52-.45.73-.19.21-.43.38-.7.5-.27.12-.58.19-.91.19M40.87,102.4c.27,0,.52-.05.75-.15.23-.1.43-.24.59-.42.17-.18.29-.39.39-.63.09-.24.14-.49.14-.77h0c0-.29-.05-.54-.14-.78-.09-.24-.22-.45-.39-.63-.17-.18-.36-.32-.59-.42-.23-.1-.48-.16-.75-.16s-.52.05-.75.15c-.23.1-.43.24-.59.42-.17.18-.29.39-.39.63-.09.24-.14.49-.14.77h0c0,.29.05.54.14.78.09.24.22.45.39.63.17.18.36.32.59.42.23.1.48.16.75.16"/>
      <polygon class="cls-2" points="44.79 98.22 45.15 98.22 46.87 102.26 48.6 98.22 48.95 98.22 47.01 102.65 46.72 102.65 44.79 98.22"/>
      <path class="cls-2" d="M52.53,98.18h.31l2.05,4.43h-.36l-.56-1.23h-2.6l-.56,1.23h-.34l2.05-4.43ZM53.83,101.09l-1.16-2.55-1.16,2.55h2.32Z"/>
      <polygon class="cls-2" points="58.02 98.51 56.48 98.51 56.48 98.22 59.88 98.22 59.88 98.51 58.34 98.51 58.34 102.62 58.02 102.62 58.02 98.51"/>
      <rect class="cls-2" x="61.89" y="98.22" width=".33" height="4.4"/>
      <polygon class="cls-2" points="64.54 98.22 64.85 98.22 67.89 102.05 67.89 98.22 68.2 98.22 68.2 102.62 67.96 102.62 64.86 98.71 64.86 102.62 64.54 102.62 64.54 98.22"/>
      <path class="cls-2" d="M72.5,102.69c-.35,0-.66-.06-.93-.18-.27-.12-.51-.28-.69-.49-.19-.21-.33-.45-.43-.72-.1-.27-.15-.57-.15-.88h0c0-.31.05-.6.15-.87.1-.27.25-.52.44-.73.19-.21.42-.38.69-.5.27-.13.57-.19.89-.19.18,0,.34.01.49.04.15.02.29.06.42.11.13.05.25.11.36.18.12.07.23.15.34.25l-.21.25c-.17-.15-.37-.28-.59-.38-.22-.1-.5-.15-.83-.15-.27,0-.51.05-.74.16-.22.1-.41.25-.58.43-.16.18-.29.39-.37.63-.09.24-.13.49-.13.75h0c0,.3.04.56.13.8.09.24.21.45.37.63.16.18.36.31.59.41.23.1.5.15.79.15.14,0,.27-.01.41-.04.13-.03.26-.06.38-.11.12-.05.23-.1.34-.16.1-.06.2-.12.28-.19v-1.26h-1.47v-.3h1.79v1.69c-.2.18-.45.33-.75.46-.3.13-.62.2-.98.2"/>
      <polygon class="cls-2" points="80.47 98.51 78.93 98.51 78.93 98.22 82.33 98.22 82.33 98.51 80.79 98.51 80.79 102.62 80.47 102.62 80.47 98.51"/>
      <path class="cls-2" d="M86.31,102.69c-.34,0-.64-.06-.91-.19-.27-.12-.5-.29-.69-.5-.19-.21-.34-.45-.45-.72-.1-.27-.16-.56-.16-.86h0c0-.31.05-.6.16-.88.11-.27.26-.52.45-.73.19-.21.43-.38.7-.5.27-.12.58-.19.91-.19s.63.06.91.19c.27.12.51.29.7.5.19.21.34.45.45.72.1.27.16.56.16.86,0,0,0,0,0,.01,0,.3-.05.59-.16.86-.11.27-.26.52-.45.73-.19.21-.43.38-.7.5-.27.12-.58.19-.91.19M86.32,102.4c.27,0,.52-.05.75-.15.23-.1.43-.24.59-.42.17-.18.29-.39.39-.63.09-.24.14-.49.14-.77h0c0-.29-.05-.54-.14-.78-.09-.24-.22-.45-.39-.63-.17-.18-.36-.32-.59-.42-.23-.1-.48-.16-.75-.16s-.52.05-.75.15c-.23.1-.43.24-.59.42-.17.18-.29.39-.39.63-.09.24-.14.49-.14.77h0c0,.29.05.54.14.78.09.24.22.45.39.63.17.18.36.32.59.42.23.1.48.16.75.16"/>
      <polygon class="cls-2" points="94.69 98.51 93.16 98.51 93.16 98.22 96.56 98.22 96.56 98.51 95.02 98.51 95.02 102.62 94.69 102.62 94.69 98.51"/>
      <path class="cls-2" d="M98.52,98.22h1.85c.27,0,.51.04.72.12.21.08.38.18.52.32.1.11.19.23.25.37.06.14.09.29.09.45h0c0,.2-.03.36-.1.51-.07.14-.16.27-.27.37-.12.1-.25.19-.41.25-.16.07-.33.11-.51.14l1.45,1.88h-.42l-1.4-1.82h-1.44v1.82h-.33v-4.4ZM100.33,100.5c.18,0,.35-.02.51-.07.16-.05.29-.11.41-.2.11-.09.2-.19.27-.32.06-.12.1-.27.1-.43h0c0-.31-.11-.55-.33-.72-.22-.17-.53-.26-.93-.26h-1.5v1.99h1.48Z"/>
      <path class="cls-2" d="M105.72,98.18h.31l2.05,4.43h-.36l-.56-1.23h-2.6l-.56,1.23h-.34l2.05-4.43ZM107.02,101.09l-1.16-2.55-1.16,2.55h2.32Z"/>
      <polygon class="cls-2" points="109.99 98.22 110.29 98.22 113.33 102.05 113.33 98.22 113.64 98.22 113.64 102.62 113.4 102.62 110.3 98.71 110.3 102.62 109.99 102.62 109.99 98.22"/>
      <path class="cls-2" d="M117.42,102.68c-.35,0-.67-.06-.95-.18-.28-.12-.56-.29-.82-.53l.21-.25c.12.11.24.21.36.29s.24.15.37.2c.13.05.26.09.4.12.14.03.29.04.45.04s.31-.02.45-.07c.14-.04.26-.1.35-.18.1-.08.17-.17.23-.28.05-.11.08-.22.08-.35h0c0-.13-.02-.23-.05-.33-.04-.09-.1-.18-.19-.25-.09-.08-.22-.14-.38-.2-.16-.06-.36-.12-.62-.17-.26-.05-.49-.12-.68-.19-.19-.07-.34-.16-.46-.26-.12-.1-.21-.21-.26-.34-.05-.13-.08-.28-.08-.45h0c0-.18.04-.33.11-.47.07-.14.17-.26.3-.37.13-.1.27-.19.45-.25.17-.06.36-.09.57-.09.32,0,.59.04.83.13.23.09.46.22.68.4l-.21.26c-.21-.18-.42-.31-.63-.38-.21-.08-.44-.11-.68-.11-.16,0-.31.02-.44.07-.13.04-.25.1-.34.18-.09.08-.17.16-.22.26-.05.1-.08.21-.08.32h0c0,.13.02.24.05.33.04.09.1.18.19.26.09.08.23.15.39.21.17.06.38.12.64.18.51.1.88.25,1.11.44.23.19.34.45.34.77h0c0,.19-.04.35-.11.5s-.17.28-.3.38c-.13.1-.28.19-.46.25-.18.06-.37.09-.59.09"/>
      <polygon class="cls-2" points="120.93 98.22 124.03 98.22 124.03 98.51 121.25 98.51 121.25 100.33 123.74 100.33 123.74 100.62 121.25 100.62 121.25 102.62 120.93 102.62 120.93 98.22"/>
      <path class="cls-2" d="M128.04,102.69c-.34,0-.64-.06-.91-.19-.27-.12-.5-.29-.7-.5-.19-.21-.34-.45-.45-.72-.1-.27-.16-.56-.16-.86h0c0-.31.05-.6.16-.88.11-.27.26-.52.45-.73.19-.21.43-.38.7-.5.27-.12.58-.19.91-.19s.63.06.91.19c.27.12.51.29.7.5.19.21.34.45.45.72.1.27.16.56.16.86,0,0,0,0,0,.01,0,.3-.05.59-.16.86-.11.27-.26.52-.45.73-.19.21-.43.38-.7.5-.27.12-.58.19-.91.19M128.05,102.4c.27,0,.52-.05.75-.15.23-.1.43-.24.59-.42.17-.18.29-.39.39-.63.09-.24.14-.49.14-.77h0c0-.29-.05-.54-.14-.78-.09-.24-.22-.45-.39-.63-.17-.18-.36-.32-.59-.42-.23-.1-.48-.16-.75-.16s-.52.05-.75.15c-.23.1-.43.24-.59.42-.17.18-.29.39-.39.63-.09.24-.14.49-.14.77h0c0,.29.05.54.14.78.09.24.22.45.39.63.17.18.36.32.59.42.23.1.48.16.75.16"/>
      <path class="cls-2" d="M132.34,98.22h1.85c.27,0,.51.04.72.12.21.08.38.18.52.32.1.11.19.23.25.37.06.14.09.29.09.45h0c0,.2-.03.36-.1.51-.07.14-.16.27-.27.37-.12.1-.25.19-.41.25-.16.07-.33.11-.51.14l1.45,1.88h-.41l-1.4-1.82h-1.44v1.82h-.33v-4.4ZM134.15,100.5c.18,0,.36-.02.51-.07.16-.05.29-.11.41-.2.11-.09.2-.19.27-.32.06-.12.1-.27.1-.43h0c0-.31-.11-.55-.33-.72-.22-.17-.53-.26-.93-.26h-1.5v1.99h1.48Z"/>
      <polygon class="cls-2" points="137.86 98.22 138.17 98.22 139.94 100.82 141.7 98.22 142.01 98.22 142.01 102.62 141.69 102.62 141.69 98.79 139.94 101.33 139.92 101.33 138.18 98.79 138.18 102.62 137.86 102.62 137.86 98.22"/>
    </g>
    <rect class="cls-2" x="24.42" y="95.37" width="117.17" height=".58"/>
  </g>
</svg>