<?xml version="1.0" encoding="UTF-8"?>
<svg id="Capa_1" data-name="Capa 1" xmlns="http://www.w3.org/2000/svg" viewBox="0 0 208.59 208.59">
  <defs>
    <style>
      .cls-1 {
        fill: #3dae2b;
      }

      .cls-2 {
        fill: #54565a;
      }
    </style>
  </defs>
  <g>
    <path class="cls-2" d="M141.95,106.17c-.03.98-.09,1.98-.05,2.96.72,16.25,2.69,32.56,3.15,48.82.07,2.51.67,6.2-2.33,7.06-25.25.42-50.59.11-75.87.16-4.37-.55-3.16-4.18-3.29-7.49,1.19-17.09,2.22-34.23,3.13-51.35l-21.85-8.87c-1.43-1.08-2-2.1-1.71-3.94,4.58-8.44,8.57-17.26,13.28-25.62,5.77-10.26,12.49-12.48,23.32-15.87,2.44-3.08,4.43-8.72,8.96-8.67,2.94.03,6.55,1,9.65,1.15,3.58.18,8.07.19,11.65.01,3.1-.15,8.34-1.47,11.04-1.12,3.3.43,5.95,6.16,7.84,8.62,10.82,3.36,17.56,5.63,23.32,15.87,4.63,8.24,8.48,16.95,13.16,25.17.51,1.96,0,3.24-1.59,4.38l-21.8,8.72ZM87.9,46.27c-1.02.17-5.19,5.97-5.32,6.94-.18,1.38,1.9,4.76,2.72,6.06,1.28,2.03,5.38,7.66,7.72,7.92,2.48.28,4.9-3.36,6.97-4.55,2.88-1.65,6.17-1.54,8.97.22,1.78,1.12,4.06,4.28,6.15,4.36,2.33.09,5.88-4.6,7.16-6.43,1.1-1.56,4.08-6.1,3.69-7.84-.21-.94-4.32-6.53-5.27-6.69-10.85,1.54-21.95,1.55-32.8,0ZM98.19,68.09c-5.07,4.27-8.87.94-12.35-3.12-2.56-2.98-4.31-6.51-6.24-9.91-6.89,2.72-13.93,4.02-18.44,10.49l-15.16,28.58-.03.62,20.99,8.54c-.27-.74.51-2.31,0-2.69l-18.39-7.46c-1.54-1.03-.42-3.22,1.42-2.56l17.24,7.04,1.47-21.68c.79-1.13,2.15-.97,2.73.3-1.4,24.03-2.79,48.04-4.2,72.06-.27,4.58-.91,9.18-.85,13.78h75.81c-1.45-28.62-3.57-57.21-5.05-85.84.38-1.3,2.5-1.48,2.71,0l1.5,21.38,17.24-7.05c1.81-.4,2.68,1.15,1.57,2.52-2.07,1.36-18.53,6.83-18.79,7.81-.08.33.52,1.77.25,2.39l20.99-8.54-.03-.62-14.71-27.9c-4.18-6.9-11.92-8.45-18.89-11.17-1.9,3.42-3.67,6.91-6.24,9.91-3.51,4.09-7.23,7.39-12.35,3.12v6.96c0,1.04-2.32,1.75-2.78.23-.59-1.93.58-8.67-.32-9.91-.99-1.37-5.4-1.35-6.13.16-.26.53-.26,10.83,0,11.36.73,1.51,6.61-.67,6.88,1.88.04.36-.38,1.52-.64,1.52h-6.81c-.69,0-2.41-2.29-2.41-2.98v-9.23Z"/>
    <rect class="cls-2" x="68.63" y="156.12" width="71.52" height="2.84"/>
    <circle class="cls-2" cx="104.3" cy="68.59" r="1.68"/>
    <path class="cls-2" d="M88.74,47.12c.54-.15,1.07.07,1.49.41,1.33,1.09,2.92,3.38,4.41,4.68,1.81,1.58,7.13,5.6,9.37,5.69,2.71.11,7.85-3.85,9.95-5.69.97-.85,4.16-4.63,4.74-4.91,1.1-.53,2.18.24,2.18,1.35,0,1.82-6.87,7.32-8.53,8.49-6.97,4.92-8.93,4.96-15.96.12-2.07-1.42-7.58-5.84-8.5-7.98-.33-.77.05-1.93.84-2.15Z"/>
  </g>
  <path class="cls-1" d="M104.3,7.11c53.59,0,97.19,43.6,97.19,97.19s-43.6,97.19-97.19,97.19S7.11,157.89,7.11,104.3,50.7,7.11,104.3,7.11M104.3,0C46.69,0,0,46.69,0,104.3s46.69,104.3,104.3,104.3,104.3-46.69,104.3-104.3S161.9,0,104.3,0h0Z"/>
</svg>