<?xml version="1.0" encoding="UTF-8"?>
<svg id="Capa_1" data-name="Capa 1" xmlns="http://www.w3.org/2000/svg" viewBox="0 0 208.59 208.59">
  <defs>
    <style>
      .cls-1 {
        fill: #54565a;
      }
    </style>
  </defs>
  <path class="cls-1" d="M104.3,7.11c53.59,0,97.19,43.6,97.19,97.19s-43.6,97.19-97.19,97.19S7.11,157.89,7.11,104.3,50.7,7.11,104.3,7.11M104.3,0C46.69,0,0,46.69,0,104.3s46.69,104.3,104.3,104.3,104.3-46.69,104.3-104.3S161.9,0,104.3,0h0Z"/>
  <g id="HKAhjH.tif">
    <g>
      <path class="cls-1" d="M126.86,60.87c.44.39,10.11-.09,11.78.03,7.72.59,15.39,5.4,19.3,12.03,6.74,11.44,3.34,29.44-2.83,40.55-1.9,3.43-7.84,12.32-11.75,12.94-5.81.92-9.04-5.29-5.49-10,2.32-3.09,4.64-5.11,6.69-8.71,6.23-10.9,10.58-33.92-7.52-35.4-1.15-.09-9.81-.31-10.19.03-.22.2-.22,2.01-1.9,1.99l.03,27.07c-.76,8.97-3.33,18.46-3.99,27.35-.71,9.52.51,19.87,0,29.48-.52,2.61-2.61,4.26-5.18,4.64-12.67-.85-26.81,1.13-39.31,0-2.96-.26-5.12-2.53-5.43-5.45-.99-9.15.67-20.09,0-29.48-.63-8.81-3.11-18.22-3.98-27.09v-26.52c-1.29-.43-1.71-1.07-1.86-2.42-.25-2.26-.28-8.66.02-10.86.27-1.96,1.8-1.99,1.85-2.18.28-1.03-.14-3.9-.01-5.28.31-3.43,1.96-5.63,5.44-6.25l47.73.06c2.42.6,4.42,2.57,4.71,5.11.18,1.57-.35,4.87.04,6.07.18.53,1.05.55,1.41.98s.35,1.22.43,1.29ZM120.99,58.77v-6.51c0-.07-.64-.64-.8-.79l-47.13-.15c-.82-.27-1.98.79-1.98,1.47v5.98h49.92ZM123.12,62.76h-53.9v7.7h53.9v-7.7ZM137.85,64.62c-3.54-.29-7.44.21-11.02,0v3.98h11.82c2.5,0,7.09,2.37,9.02,3.99,12.38,10.44,4.29,32.74-4.12,43.4-1.17,1.48-5.15,4.26-2.52,6.25,1.92,1.46,4.15-1.57,5.32-2.92,8.26-9.55,12.12-22.34,11.29-34.94-.69-10.46-9.41-18.93-19.79-19.77ZM120.99,74.44h-49.92v26.44c.76,9.15,3.37,18.8,3.98,27.88.49,7.38-.36,15.27,0,22.7h41.82c.29,0,.38-.65.41-.92.81-6.86-.47-15.45-.01-22.58.54-8.37,2.94-17.33,3.72-25.75v-27.76ZM117.28,155.17h-42.22c.11,1.27-.47,2.8.8,3.58l39.95.13c1.64-.56,1.55-2.24,1.47-3.71Z"/>
      <path class="cls-1" d="M113.36,106.51c-.82-.86-.08-3.25-.06-4.3.07-3.68-.47-8.76.01-12.2.39-2.79,3.58-2.91,3.94-.54.4,2.59.22,9.4.01,12.2-.06.83-.54,4.11-.94,4.64-.63.85-2.25.97-2.97.21Z"/>
      <path class="cls-1" d="M113.74,110.91c2.84-.05,2,5.1.37,5.64-3.37,1.11-3.43-5.59-.37-5.64Z"/>
    </g>
  </g>
</svg>