<?xml version="1.0" encoding="UTF-8"?>
<svg id="Capa_1" data-name="Capa 1" xmlns="http://www.w3.org/2000/svg" viewBox="0 0 170.51 170.51">
  <defs>
    <style>
      .cls-1 {
        fill: #3dae2b;
      }

      .cls-2 {
        fill: #54565a;
      }
    </style>
  </defs>
  <path class="cls-1" d="M85.25,5.81c43.81,0,79.45,35.64,79.45,79.45s-35.64,79.45-79.45,79.45S5.81,129.06,5.81,85.25,41.45,5.81,85.25,5.81M85.25,0C38.17,0,0,38.17,0,85.25s38.17,85.25,85.25,85.25,85.25-38.17,85.25-85.25S132.34,0,85.25,0h0Z"/>
  <g>
    <g>
      <path class="cls-2" d="M116.44,75.77c1.1.55,2.4,1.15,3.84,1.72.12-.07.22-.16.33-.24h0c.13-.23.25-.46.35-.7-1.46-.6-2.79-1.26-3.93-1.88-.06-.03-.13,0-.15.06-.05.14-.11.28-.18.41-.09.16-.19.31-.3.45-.04.06-.03.13.03.17Z"/>
      <path class="cls-2" d="M120.32,72.23c.36.2.73.4,1.11.58.08.04.17-.03.16-.11-.02-.22-.05-.43-.08-.64-.01-.06-.07-.11-.14-.09-.25.06-.49.12-.75.19-.1.03-.2.05-.3.08Z"/>
      <path class="cls-2" d="M114.78,76.68c.51.27,1.06.53,1.61.74.02,0,.04,0,.07,0,.48-.19.92-.4,1.29-.65-.6-.28-1.16-.55-1.68-.82-.06.06-.11.12-.18.18-.33.26-.7.44-1.1.55Z"/>
      <path class="cls-2" d="M115.89,70.63c.27.2.49.44.68.72.03.05.09.06.14.04,1.35-.66,2.69-1.12,4.01-1.36.06-.01.09-.07.06-.12-.17-.33-.37-.65-.59-.96-.02-.03-.06-.04-.09-.04-1.74.35-3.28.94-4.51,1.53.1.06.2.12.3.19Z"/>
      <path class="cls-2" d="M119.91,71.99c.21-.05.42-.11.62-.16.28-.08.58-.16.88-.22-.02-.1-.04-.2-.07-.3-.09-.32-.2-.62-.33-.91-.02-.04-.06-.06-.1-.05-.78.13-1.57.33-2.36.62-.07.02-.08.11-.02.15.32.22.81.54,1.38.88Z"/>
      <path class="cls-2" d="M112.26,76.84c.18-.04.42-.09.71-.17-.23-.06-.45-.15-.66-.25l-.05.42Z"/>
      <path class="cls-2" d="M112.21,77.25l-.13,1.08c0,.06.04.1.1.1.69-.09,2.17-.32,3.55-.76.08-.02.08-.13,0-.16-.52-.23-1.03-.49-1.49-.74-.14.01-.28.01-.42,0-.67.21-1.22.34-1.54.4-.04,0-.06.04-.07.07Z"/>
      <path class="cls-2" d="M111.78,80.71c.37.1.75.18,1.15.23,1.1.14,2.15.07,3.13-.2.98-.27,1.86-.7,2.64-1.3.56-.43,1.04-.93,1.45-1.5-3.22,1.84-7.36,2.33-8.33,2.42l-.04.34Z"/>
      <path class="cls-2" d="M112.01,78.86l-.13,1.06c0,.06.04.1.09.1,1.19-.13,4.82-.63,7.77-2.23.07-.04.06-.14-.01-.16-.55-.22-1.08-.45-1.59-.68-.03-.01-.05,0-.08,0-1.67,1.22-4.99,1.7-5.98,1.83-.04,0-.07.04-.07.08Z"/>
      <path class="cls-2" d="M116.8,71.72c.04.08.08.15.11.23.03.08.06.16.08.25,1.1.64,2.57,1.43,4.4,2.31.07.03.15-.01.16-.09.05-.37.07-.74.06-1.1,0-.03-.02-.06-.05-.08-1.54-.68-3.1-1.76-3.51-2.05-.02-.01-.04-.02-.07,0-.39.16-.79.34-1.19.54Z"/>
      <path class="cls-2" d="M117.11,73.79c-.02.15-.05.28-.08.41-.01.05,0,.1.05.12,1.13.62,2.45,1.27,3.91,1.88.05.02.1,0,.12-.05.14-.37.25-.76.33-1.17,0-.04-.01-.09-.05-.1-1.66-.79-3.03-1.52-4.11-2.13-.08-.04-.17.02-.16.11.03.29.03.6-.01.92Z"/>
      <path class="cls-2" d="M116.08,66.3c.1-.04.09-.18,0-.21-.41-.11-.83-.2-1.28-.25-.37-.05-.74-.06-1.09-.06-.04,0-.08.03-.09.08l-.18,1.5c0,.07.06.12.12.09.54-.27,1.47-.71,2.53-1.14Z"/>
      <path class="cls-2" d="M116.63,66.44c-1.47.58-2.75,1.21-3.22,1.45-.03.01-.04.04-.04.07l-.17,1.41c0,.07.06.12.13.09.93-.49,2.97-1.5,5.23-2.17-.24-.17-.49-.34-.75-.49-.29-.17-.56-.29-.88-.41-.05-.02-.22.04-.27.06Z"/>
      <path class="cls-2" d="M113.1,70.07c.38-.09.77-.11,1.19-.06.32.04.62.12.89.23.02,0,.04,0,.06,0,1.22-.6,2.78-1.22,4.54-1.6.07-.01.09-.09.05-.14-.28-.33-.6-.64-.94-.92-.02-.02-.05-.03-.08-.02-2.68.77-5.08,2.05-5.7,2.4l-.02.12Z"/>
    </g>
    <g>
      <path class="cls-2" d="M109.94,79.98c.39.22.81.4,1.25.55.05.02.11-.02.12-.07l.53-4.28s0-.06-.03-.08c-.43-.33-.75-.76-.97-1.28-.22-.54-.29-1.15-.21-1.84.06-.51.2-.97.42-1.36.21-.4.48-.72.81-.98.2-.16.43-.28.67-.38.03-.01.05-.04.05-.07l.53-4.29c0-.06-.04-.1-.1-.1-.46.04-.91.11-1.34.23-.98.26-1.86.69-2.64,1.29-.77.6-1.41,1.33-1.9,2.2-.5.87-.81,1.84-.94,2.92-.13,1.07-.06,2.09.21,3.05.27.96.71,1.83,1.31,2.6.61.77,1.35,1.4,2.24,1.9Z"/>
      <path class="cls-2" d="M52.37,80.44c.22-.24.33-.58.33-1.01v-4.31h3.72c1.62,0,2.87-.41,3.74-1.22.88-.82,1.32-1.95,1.32-3.4s-.44-2.58-1.32-3.39c-.88-.81-2.13-1.21-3.74-1.21h-5.04c-.43,0-.77.11-1,.35-.24.23-.36.57-.36,1.01v12.17c0,.43.11.77.35,1.01.23.24.56.37.99.37s.78-.12,1-.37ZM52.7,68.01h3.3c.95,0,1.67.21,2.15.63.49.42.73,1.04.73,1.86s-.24,1.45-.73,1.87c-.49.43-1.21.64-2.15.64h-3.3v-5Z"/>
      <path class="cls-2" d="M69.79,80.85c1.35,0,2.49-.23,3.41-.7.92-.47,1.61-1.17,2.08-2.1.47-.93.7-2.08.7-3.45v-7.51c0-.46-.11-.8-.35-1.02-.23-.22-.55-.33-.97-.33s-.76.11-.99.33c-.23.22-.35.56-.35,1.02v7.49c0,1.32-.3,2.32-.9,2.98-.6.66-1.48.99-2.64.99s-2.04-.33-2.65-.99c-.61-.66-.91-1.66-.91-2.98v-7.49c0-.46-.11-.8-.34-1.02-.23-.22-.56-.33-.99-.33s-.76.11-.99.33c-.23.22-.35.56-.35,1.02v7.51c0,1.03.13,1.94.4,2.72.26.78.66,1.43,1.19,1.96.53.52,1.18.92,1.96,1.18.77.26,1.67.4,2.69.4Z"/>
      <path class="cls-2" d="M81.27,80.47c.21-.22.31-.54.31-.96v-9.21l7.47,9.71c.22.28.43.48.62.61.19.13.44.19.76.19s.6-.11.79-.33c.2-.22.29-.53.29-.92v-12.55c0-.4-.1-.72-.31-.94-.21-.22-.52-.33-.92-.33s-.71.11-.93.33c-.22.22-.32.54-.32.94v9.19l-7.47-9.69c-.22-.28-.41-.48-.58-.6-.16-.12-.4-.18-.72-.18-.35,0-.63.11-.85.35-.22.23-.32.56-.32.99v12.44c0,.42.11.74.32.96.22.22.53.33.93.33s.71-.11.92-.33Z"/>
      <path class="cls-2" d="M94.22,68.13h4.08v11.29c0,.43.12.77.35,1.01.23.24.56.37.99.37s.78-.12,1-.37c.22-.24.33-.58.33-1.01v-11.29h4.08c.36,0,.64-.1.85-.3.2-.2.3-.48.3-.83s-.1-.64-.3-.83c-.2-.19-.48-.28-.85-.28h-10.83c-.36,0-.65.09-.85.28-.2.19-.3.46-.3.83s.1.62.3.83c.2.2.48.3.85.3Z"/>
      <path class="cls-2" d="M43.28,85.5h-5.04c-.43,0-.77.11-1,.35-.24.23-.36.57-.36,1.01v12.17c0,.43.11.77.35,1.01.23.24.56.37.99.37s.78-.12,1-.37c.22-.24.33-.58.33-1.01v-4.31h3.72c1.62,0,2.87-.41,3.74-1.22.88-.82,1.32-1.95,1.32-3.4s-.44-2.58-1.32-3.39c-.88-.81-2.13-1.21-3.74-1.21ZM45.02,91.97c-.49.43-1.21.64-2.15.64h-3.3v-5h3.3c.95,0,1.67.21,2.15.63.49.42.73,1.04.73,1.86s-.24,1.45-.73,1.87Z"/>
      <path class="cls-2" d="M61.52,85.33c-.43,0-.76.11-.99.33-.23.22-.35.56-.35,1.02v7.49c0,1.32-.3,2.32-.9,2.98-.6.66-1.48.99-2.64.99s-2.04-.33-2.65-.99c-.61-.66-.91-1.66-.91-2.98v-7.49c0-.46-.11-.8-.34-1.02-.23-.22-.56-.33-.99-.33s-.76.11-.99.33c-.23.22-.35.56-.35,1.02v7.51c0,1.03.13,1.94.4,2.72.26.78.66,1.43,1.19,1.96.53.52,1.18.92,1.96,1.18.77.26,1.67.4,2.69.4,1.35,0,2.49-.23,3.41-.7.92-.47,1.61-1.17,2.08-2.1.47-.93.7-2.08.7-3.45v-7.51c0-.46-.11-.8-.35-1.02-.23-.22-.55-.33-.97-.33Z"/>
      <path class="cls-2" d="M77.14,85.33c-.4,0-.71.11-.93.33-.22.22-.32.54-.32.94v9.19l-7.47-9.69c-.22-.28-.41-.48-.57-.6-.16-.12-.4-.18-.72-.18-.35,0-.63.11-.85.35-.22.23-.32.56-.32.99v12.44c0,.42.11.74.32.96.22.22.53.33.93.33s.71-.11.92-.33c.21-.22.31-.54.31-.96v-9.21l7.47,9.71c.22.28.43.48.62.61.19.13.44.19.76.19s.6-.11.79-.33c.2-.22.29-.53.29-.92v-12.55c0-.4-.1-.72-.31-.94s-.52-.33-.92-.33Z"/>
      <path class="cls-2" d="M93.06,86.61c0-.36-.1-.64-.3-.83-.2-.19-.48-.28-.85-.28h-10.83c-.36,0-.65.09-.85.28-.2.19-.3.46-.3.83s.1.62.3.83c.2.2.48.3.85.3h4.08v11.29c0,.43.12.77.35,1.01.23.24.56.37.99.37s.78-.12,1-.37c.22-.24.33-.58.33-1.01v-11.29h4.08c.36,0,.64-.1.85-.3.2-.2.3-.48.3-.83Z"/>
      <path class="cls-2" d="M100.67,86.46c-.18-.4-.4-.69-.66-.87-.26-.17-.55-.26-.87-.26s-.63.09-.89.26c-.26.17-.48.46-.66.87l-5.52,12.24c-.14.32-.19.61-.15.87.04.26.16.46.37.62.2.15.47.23.81.23.36,0,.64-.09.84-.27.19-.18.38-.47.56-.88l1.03-2.43h7.19l1.04,2.43c.17.39.36.68.58.87.22.19.52.28.91.28.32,0,.58-.07.77-.22.19-.15.31-.35.36-.62.04-.26-.01-.56-.17-.88l-5.54-12.24ZM99.1,88.41h.04l2.67,6.3h-5.35l2.65-6.3Z"/>
      <path class="cls-2" d="M114,85.5h-4.06c-.46,0-.81.12-1.06.37-.24.24-.37.6-.37,1.06v11.9c0,.46.12.81.37,1.06.24.24.6.37,1.06.37h4.06c1.24,0,2.34-.16,3.29-.49.95-.33,1.76-.81,2.43-1.43.66-.63,1.16-1.4,1.51-2.31.34-.91.51-1.96.51-3.15,0-2.37-.67-4.19-2.02-5.46-1.35-1.27-3.25-1.9-5.72-1.9ZM118.62,95.13c-.21.65-.53,1.19-.95,1.61-.43.43-.96.75-1.59.96-.63.22-1.38.32-2.25.32h-2.63v-10.31h2.63c1.7,0,2.98.43,3.83,1.28.85.85,1.28,2.14,1.28,3.87,0,.86-.1,1.62-.31,2.27Z"/>
      <path class="cls-2" d="M137.4,98.7l-5.54-12.24c-.18-.4-.4-.69-.66-.87-.26-.17-.55-.26-.87-.26s-.63.09-.89.26c-.26.17-.48.46-.66.87l-5.52,12.24c-.14.32-.19.61-.15.87.04.26.16.46.37.62.2.15.47.23.81.23.36,0,.64-.09.84-.27.19-.18.38-.47.56-.88l1.03-2.43h7.19l1.04,2.43c.17.39.36.68.58.87.22.19.52.28.91.28.32,0,.58-.07.77-.22.2-.15.31-.35.36-.62.04-.26-.01-.56-.17-.88ZM130.29,88.41h.04l2.67,6.3h-5.35l2.65-6.3Z"/>
    </g>
    <g>
      <path class="cls-2" d="M65.45,105.23h-4.01c-.13,0-.24.04-.31.1-.08.07-.11.17-.11.31s.04.23.11.31c.07.07.18.11.31.11h1.51v4.18c0,.16.04.28.13.37.09.09.21.14.37.14s.29-.05.37-.14c.08-.09.12-.21.12-.37v-4.18h1.51c.13,0,.24-.04.31-.11.07-.07.11-.18.11-.31s-.04-.24-.11-.31c-.08-.07-.18-.1-.31-.1Z"/>
      <path class="cls-2" d="M72.04,106.02c.13,0,.23-.04.3-.1.07-.07.1-.17.1-.3s-.03-.22-.1-.29c-.07-.07-.17-.1-.3-.1h-2.76c-.17,0-.3.05-.39.14-.09.09-.14.22-.14.39v4.4c0,.17.04.3.14.39.09.09.22.14.39.14h2.76c.13,0,.23-.03.3-.1.07-.07.1-.16.1-.29s-.03-.23-.1-.29c-.07-.07-.17-.1-.3-.1h-2.34v-1.59h2.17c.13,0,.23-.03.3-.1.07-.07.1-.16.1-.29s-.03-.23-.1-.29c-.07-.07-.17-.1-.3-.1h-2.17v-1.5h2.34Z"/>
      <path class="cls-2" d="M78.23,107.91l1.53-2.05c.09-.12.13-.23.12-.34-.01-.11-.06-.19-.14-.26-.08-.07-.19-.1-.32-.1-.11,0-.2.02-.28.07-.08.05-.16.13-.24.24l-1.23,1.7-1.23-1.7c-.08-.11-.16-.19-.24-.24-.08-.05-.17-.07-.27-.07-.12,0-.23.03-.31.1-.08.07-.13.16-.14.26-.01.11.03.22.11.33l1.53,2.05-1.61,2.15c-.08.11-.12.22-.1.32.01.11.06.19.14.26s.19.1.32.1c.1,0,.2-.03.28-.08.08-.05.16-.13.25-.25l1.29-1.78,1.3,1.78c.09.11.17.2.25.25.08.05.17.08.27.08.13,0,.24-.04.32-.1.08-.07.13-.16.14-.26.01-.11-.03-.21-.11-.32l-1.6-2.15Z"/>
      <path class="cls-2" d="M86.99,105.23h-4.01c-.13,0-.24.04-.31.1-.07.07-.11.17-.11.31s.04.23.11.31c.08.07.18.11.31.11h1.51v4.18c0,.16.04.28.13.37.08.09.21.14.37.14s.29-.05.37-.14c.08-.09.12-.21.12-.37v-4.18h1.51c.13,0,.24-.04.31-.11.07-.07.11-.18.11-.31s-.04-.24-.11-.31c-.07-.07-.18-.1-.31-.1Z"/>
      <path class="cls-2" d="M90.79,105.17c-.16,0-.28.04-.37.13-.09.09-.13.21-.13.38v4.56c0,.16.04.28.13.37.08.09.21.14.37.14s.29-.05.37-.14c.08-.09.12-.21.12-.37v-4.56c0-.17-.04-.29-.13-.38-.09-.09-.21-.13-.37-.13Z"/>
      <path class="cls-2" d="M98.03,109.84h-2.24v-4.13c0-.17-.04-.29-.13-.38-.09-.08-.21-.13-.37-.13s-.28.04-.37.13-.13.21-.13.38v4.46c0,.16.04.28.13.37.09.09.21.14.37.14h2.73c.14,0,.25-.04.32-.11s.11-.18.11-.31-.04-.24-.11-.31c-.07-.07-.18-.11-.32-.11Z"/>
      <path class="cls-2" d="M104.75,106.02c.13,0,.23-.04.3-.1.07-.07.1-.17.1-.3s-.04-.22-.1-.29c-.07-.07-.17-.1-.3-.1h-2.76c-.17,0-.3.05-.39.14-.09.09-.14.22-.14.39v4.4c0,.17.04.3.14.39.09.09.22.14.39.14h2.76c.13,0,.23-.03.3-.1.07-.07.1-.16.1-.29s-.04-.23-.1-.29c-.07-.07-.17-.1-.3-.1h-2.34v-1.59h2.17c.13,0,.23-.03.3-.1.07-.07.1-.16.1-.29s-.03-.23-.1-.29-.17-.1-.3-.1h-2.17v-1.5h2.34Z"/>
      <path class="cls-2" d="M111.98,108.19c-.25-.23-.63-.4-1.14-.51l-.84-.18c-.3-.06-.51-.15-.63-.26-.12-.11-.19-.26-.19-.44,0-.16.05-.31.14-.43.09-.12.22-.22.39-.28s.37-.1.61-.1.44.02.63.07c.2.05.39.12.58.23.11.06.21.09.29.08.09-.01.16-.04.21-.1.06-.06.09-.12.11-.2.02-.08,0-.16-.02-.24-.03-.08-.08-.15-.17-.21-.22-.15-.47-.26-.75-.34-.28-.08-.57-.12-.88-.12s-.6.04-.86.12c-.26.08-.48.19-.67.34-.19.15-.33.33-.44.53-.1.21-.15.44-.15.69,0,.4.12.73.36.97.24.25.6.42,1.09.52l.85.18c.32.07.54.15.68.26s.2.25.2.43c0,.22-.09.39-.28.53-.19.14-.48.2-.89.2-.28,0-.54-.03-.8-.09-.25-.06-.49-.16-.72-.29-.1-.06-.19-.09-.27-.07-.08.02-.15.06-.21.12-.05.06-.09.14-.1.22-.01.08,0,.17.03.26.04.09.1.16.19.22.16.1.34.19.54.26.2.07.42.12.64.15.23.03.45.05.68.05.33,0,.63-.04.89-.12.26-.08.49-.19.68-.33s.33-.32.43-.52c.1-.2.15-.43.15-.67,0-.39-.13-.7-.38-.93Z"/>
    </g>
  </g>
</svg>