<?xml version="1.0" encoding="UTF-8"?>
<svg id="Capa_1" data-name="Capa 1" xmlns="http://www.w3.org/2000/svg" viewBox="0 0 170.51 170.51">
  <defs>
    <style>
      .cls-1 {
        fill: #3dae2b;
      }

      .cls-2 {
        fill: #54565a;
      }
    </style>
  </defs>
  <path class="cls-1" d="M85.25,5.81c43.81,0,79.45,35.64,79.45,79.45s-35.64,79.45-79.45,79.45S5.81,129.06,5.81,85.25,41.45,5.81,85.25,5.81M85.25,0C38.17,0,0,38.17,0,85.25s38.17,85.25,85.25,85.25,85.25-38.17,85.25-85.25S132.34,0,85.25,0h0Z"/>
  <g>
    <path class="cls-2" d="M25.87,86.1v-.12c0-.11-.02-.22-.08-.35-.03-.12-.11-.18-.23-.18h-4.22c-.42,0-.8-.11-1.14-.31-.34-.2-.63-.46-.87-.77-.25-.33-.44-.67-.56-1.05-.12-.38-.2-.76-.2-1.12,0-.33.11-.72.3-1.15.19-.42.45-.83.76-1.22.31-.39.67-.71,1.06-.97.39-.26.79-.39,1.18-.39h10.77c-.34.48-.7.95-1.11,1.43-.42.48-.87.96-1.38,1.44h-6.96c-.15,0-.28.11-.4.32-.12.21-.17.38-.17.51v.1s.03.04.09.1c.06.05.09.08.12.11.05.05.14.11.24.15.11.05.16.08.18.08h4.01c.45,0,.84.11,1.16.33.32.23.58.49.79.82.2.33.36.69.45,1.06.09.38.15.73.15,1.06v.12c0,.37-.09.76-.25,1.17-.17.42-.4.79-.66,1.15-.28.35-.6.64-.95.87-.37.24-.73.35-1.12.35h-10.75c.07-.15.22-.37.42-.67.23-.31.46-.63.7-.94.25-.32.48-.6.68-.85.22-.24.34-.36.39-.36h7.17c.21,0,.33-.06.37-.19.04-.12.07-.26.07-.4v-.13Z"/>
    <path class="cls-2" d="M33.84,78.46h9.69c.42,0,.76.11,1.04.33.28.22.49.48.65.8.16.31.27.66.34,1.01.05.36.09.68.09.96,0,.59-.14,1.13-.43,1.63-.28.49-.64.91-1.07,1.27-.44.36-.92.64-1.44.83-.51.19-1.01.29-1.5.29h-5.93l-1.46,4.05h-4.05l4.07-11.18ZM35.67,84.54l2.03-1.8h3.37s.05-.03.1-.09c.05-.07.09-.14.16-.23.06-.09.11-.17.15-.24.05-.08.09-.13.1-.18l.04-.1s-.02-.05-.04-.11c-.05-.07-.12-.17-.22-.28-.11-.12-.17-.18-.21-.18h-4.33l-1.16,3.21Z"/>
    <path class="cls-2" d="M59.41,85.93c-.43.73-.94,1.37-1.58,1.92-.62.55-1.33.98-2.11,1.31-.78.32-1.58.48-2.41.48h-2.11c-.77,0-1.49-.07-2.15-.19-.66-.13-1.23-.35-1.71-.65-.47-.3-.86-.71-1.13-1.23-.27-.52-.41-1.18-.41-1.97,0-.17,0-.35.02-.53.01-.18.04-.37.07-.57.11-.78.37-1.54.78-2.27.41-.73.91-1.37,1.53-1.94.59-.56,1.27-.99,1.99-1.33.72-.34,1.45-.51,2.19-.51h2.8c1.7,0,2.99.29,3.87.87.88.59,1.32,1.55,1.32,2.91,0,.42-.04.87-.12,1.34-.13.83-.4,1.61-.82,2.35M49.82,84.37v.13c0,.25.06.52.15.78.09.28.23.53.39.76.17.22.37.4.6.55.23.14.46.21.72.21h1.39c.14,0,.34-.06.61-.18.26-.11.53-.27.81-.47.28-.2.55-.42.8-.66.25-.25.45-.49.57-.73.12-.19.2-.35.23-.46l.09-.21c.03-.14.04-.21.04-.2.02-.11.03-.23.04-.35,0-.11,0-.25,0-.36,0-.23-.02-.45-.06-.68-.04-.23-.12-.43-.25-.61-.13-.17-.29-.32-.52-.41-.22-.11-.5-.16-.85-.16h-1.71c-.23,0-.48.05-.73.18-.25.12-.51.28-.76.48-.26.19-.5.41-.71.65-.22.25-.39.49-.52.73-.08.17-.13.33-.19.48-.06.13-.1.27-.11.39-.01.01-.02.06-.02.14"/>
    <path class="cls-2" d="M63.28,78.46h9.41c.48,0,.87.11,1.17.32.3.21.54.48.71.81.17.32.28.67.35,1.06.07.37.09.72.09,1.04,0,.72-.17,1.31-.53,1.78-.35.46-.8.82-1.31,1.11-.53.27-1.12.47-1.75.59-.63.12-1.24.2-1.8.24l4.13,4.24h-4.51l-4.35-4.01-.23.17-1.4,3.84h-4.05l4.07-11.18ZM70.92,81.69c0-.11-.01-.2-.06-.28-.04-.08-.15-.12-.32-.12h-4.25l-1.2,3.3,1.85-1.88h3.38c.21,0,.36-.09.46-.29.09-.18.13-.35.13-.5v-.23Z"/>
    <path class="cls-2" d="M80.2,81.31h-3.98v-.03s.12-.2.31-.46c.18-.26.41-.54.67-.84.27-.32.53-.61.8-.9.28-.3.51-.5.71-.63h10.56c-.1.19-.27.45-.49.77-.23.32-.48.63-.74.94-.26.31-.52.58-.77.8-.24.23-.42.34-.53.34h-2.49l-3.04,8.33h-4.05l3.04-8.33Z"/>
    <path class="cls-2" d="M94.26,84.48c0-.67.14-1.38.44-2.09.29-.72.7-1.37,1.2-1.94.51-.57,1.08-1.05,1.75-1.42.66-.37,1.37-.56,2.11-.56h8.72c-.41.53-.83,1.04-1.24,1.51-.42.47-.87.92-1.36,1.34h-5.49c-.18,0-.37.05-.58.18-.2.12-.39.28-.58.48-.19.19-.36.41-.52.65-.15.25-.27.49-.35.73-.12.37-.17.66-.17.87,0,.26.06.55.2.85.15.3.32.58.54.84.23.25.46.46.71.64.26.17.52.25.75.25h5.05c-.32.48-.7.97-1.11,1.47-.4.5-.87.96-1.4,1.38h-1.69c-.88,0-1.72-.08-2.56-.23-.83-.16-1.57-.42-2.24-.82-.66-.39-1.19-.91-1.59-1.57-.41-.66-.6-1.49-.6-2.51v-.04Z"/>
    <path class="cls-2" d="M116.35,89.65l-.45-2.39c-.03.09-.12.24-.31.49-.18.23-.37.49-.59.76-.21.27-.43.51-.64.74-.21.23-.37.36-.46.4h-8.92c.02-.12.04-.16.04-.15v-.06l7.6-9.71c.03-.08.12-.19.25-.33.12-.14.26-.28.41-.41.15-.13.3-.26.44-.35.15-.12.27-.16.37-.16h3.54c.14,0,.27.08.39.23.13.16.23.35.31.57.08.23.16.46.21.71.07.25.12.46.16.63l1.39,9.05h-3.75ZM111.62,86.82h4.28l-.74-4.96-3.54,4.75v.21Z"/>
    <path class="cls-2" d="M125.15,78.46h9.68c.42,0,.77.11,1.04.33.28.22.51.48.66.8.16.31.28.66.34,1.01.07.36.1.68.1.96,0,.59-.14,1.13-.42,1.63-.28.49-.65.91-1.08,1.27-.44.36-.92.64-1.44.83-.51.19-1.02.29-1.49.29h-5.94l-1.46,4.05h-4.06l4.07-11.18ZM126.98,84.54l2.02-1.8h3.39s.04-.03.08-.09c.06-.07.1-.14.16-.23.06-.09.12-.17.16-.24.06-.08.09-.13.11-.18l.04-.1s-.03-.05-.04-.11c-.04-.07-.12-.17-.22-.28-.11-.12-.18-.18-.21-.18h-4.32l-1.17,3.21Z"/>
    <path class="cls-2" d="M145.34,86.1v-.12c0-.11-.02-.22-.07-.35-.04-.12-.12-.18-.23-.18h-4.22c-.42,0-.8-.11-1.14-.31-.33-.2-.62-.46-.87-.77-.25-.33-.44-.67-.56-1.05-.13-.38-.19-.76-.19-1.12,0-.33.11-.72.29-1.15.19-.42.46-.83.76-1.22.32-.39.67-.71,1.06-.97.39-.26.79-.39,1.19-.39h10.75c-.31.48-.69.95-1.11,1.43-.4.48-.86.96-1.37,1.44h-6.96c-.17,0-.3.11-.41.32-.12.21-.17.38-.17.51v.1s.03.04.09.1c.05.05.1.08.12.11.05.05.14.11.25.15.11.05.17.08.18.08h4.01c.44,0,.83.11,1.16.33.33.23.58.49.8.82.2.33.35.69.45,1.06.09.38.14.73.14,1.06v.12c0,.37-.08.76-.25,1.17-.17.42-.39.79-.66,1.15-.28.35-.59.64-.94.87-.37.24-.74.35-1.11.35h-10.77c.07-.15.22-.37.44-.67.21-.31.45-.63.69-.94.25-.32.47-.6.68-.85.22-.24.34-.36.38-.36h7.17c.22,0,.34-.06.37-.19.04-.12.06-.26.06-.4v-.13Z"/>
    <path class="cls-2" d="M44.53,95.35c-.04-.65-.07-1.45-.07-2.04h-.01c-.18.54-.38,1.15-.61,1.8l-.82,2.28h-.46l-.78-2.25c-.23-.66-.42-1.27-.53-1.83h-.01c-.03.6-.05,1.38-.11,2.1l-.11,2.02h-.59l.32-4.73h.79l.8,2.28c.19.57.35,1.1.49,1.6h0c.12-.48.3-1.01.51-1.6l.84-2.28h.78l.3,4.73h-.61l-.11-2.08Z"/>
    <path class="cls-2" d="M48.6,96.62c0,.3.01.58.03.82h-.54l-.05-.42h-.01c-.2.27-.56.51-1.04.51-.69,0-1.03-.49-1.03-.99,0-.82.71-1.27,2.03-1.27v-.06c0-.28-.07-.79-.78-.77-.31,0-.65.09-.89.26l-.12-.44c.28-.16.68-.28,1.12-.28,1.04,0,1.29.72,1.29,1.38v1.27ZM47.99,95.69c-.67,0-1.44.11-1.44.78,0,.39.28.57.58.57.45,0,.74-.26.83-.56.01-.07.02-.13.02-.19v-.6Z"/>
    <path class="cls-2" d="M49.51,96.81c.2.11.51.24.81.24.45,0,.66-.21.66-.5s-.17-.45-.63-.61c-.62-.24-.88-.55-.88-.97,0-.54.43-.99,1.17-.99.33,0,.63.09.82.2l-.14.46c-.14-.09-.38-.2-.69-.2-.38,0-.57.22-.57.46,0,.27.19.39.64.57.57.22.89.51.89,1.02,0,.61-.47,1.04-1.26,1.04-.39,0-.71-.11-.96-.24l.15-.47Z"/>
    <path class="cls-2" d="M56.16,96.92h-.02c-.19.32-.55.6-1.1.6-.78,0-1.43-.69-1.43-1.72,0-1.28.81-1.83,1.54-1.83.53,0,.89.26,1.03.58h.02l.02-.51h.58c0,.27-.02.57-.02.93v3.84h-.61v-1.9ZM56.16,95.42c0-.1-.01-.19-.02-.26-.1-.37-.43-.7-.89-.7-.64,0-1.02.53-1.02,1.3,0,.68.32,1.27.99,1.27.42,0,.74-.24.9-.67.02-.09.04-.21.04-.31v-.63Z"/>
    <path class="cls-2" d="M60.64,96.51c0,.36,0,.66.02.93h-.54l-.03-.57h-.03c-.15.29-.5.65-1.11.65-.53,0-1.17-.31-1.17-1.5v-1.98h.61v1.87c0,.63.21,1.08.77,1.08.41,0,.7-.28.8-.57.04-.07.07-.18.07-.29v-2.08h.62v2.46Z"/>
    <path class="cls-2" d="M62,95.85c.01.84.54,1.18,1.17,1.18.43,0,.7-.07.92-.18l.12.43c-.22.11-.6.24-1.13.24-1.05,0-1.67-.7-1.67-1.72s.6-1.83,1.59-1.83c1.12,0,1.41.96,1.41,1.59,0,.13,0,.21,0,.29h-2.4ZM63.8,95.42c.02-.39-.14-1.01-.84-1.01-.63,0-.89.58-.94,1.01h1.78Z"/>
    <path class="cls-2" d="M69.5,96.51c0,.36,0,.66.03.93h-.55l-.04-.57h-.02c-.14.29-.51.65-1.11.65-.54,0-1.18-.31-1.18-1.5v-1.98h.62v1.87c0,.63.2,1.08.77,1.08.41,0,.7-.28.81-.57.04-.07.06-.18.06-.29v-2.08h.61v2.46Z"/>
    <path class="cls-2" d="M70.5,94.95c0-.35,0-.63,0-.9h.55l.02.55h.03c.18-.31.55-.63,1.12-.63.47,0,1.19.28,1.19,1.45v2.01h-.61v-1.96c0-.55-.21-1.01-.79-1.01-.39,0-.71.29-.82.64-.03.08-.04.17-.04.28v2.04h-.64v-2.49Z"/>
    <path class="cls-2" d="M76.79,96.62c0,.3.02.58.06.82h-.56l-.04-.42h-.04c-.18.27-.54.51-1.04.51-.68,0-1.03-.49-1.03-.99,0-.82.73-1.27,2.03-1.27v-.06c0-.28-.08-.79-.76-.77-.33,0-.67.09-.91.26l-.13-.44c.27-.16.7-.28,1.12-.28,1.04,0,1.29.72,1.29,1.38v1.27ZM76.19,95.69c-.67,0-1.45.11-1.45.78,0,.39.29.57.59.57.44,0,.73-.26.83-.56.03-.07.03-.13.03-.19v-.6Z"/>
    <path class="cls-2" d="M82.17,96.94c0,.78-.16,1.25-.49,1.56-.32.3-.81.39-1.23.39s-.86-.09-1.13-.28l.15-.48c.22.16.57.28,1,.28.64,0,1.1-.33,1.1-1.2v-.37h-.01c-.18.32-.56.57-1.08.57-.84,0-1.44-.71-1.44-1.66,0-1.15.76-1.79,1.53-1.79.6,0,.91.3,1.06.58h.02l.02-.51h.55c-.04.24-.04.52-.04.91v1.98ZM81.57,95.38c0-.11-.01-.18-.04-.26-.13-.37-.41-.66-.86-.66-.6,0-1.02.49-1.02,1.26,0,.68.35,1.23,1.01,1.23.38,0,.73-.24.86-.64.02-.1.05-.22.05-.32v-.6Z"/>
    <path class="cls-2" d="M86.26,95.71c0,1.26-.89,1.81-1.69,1.81-.89,0-1.62-.69-1.62-1.76s.75-1.79,1.67-1.79c.98,0,1.64.72,1.64,1.73M83.58,95.74c0,.75.42,1.31,1.02,1.31s1.04-.55,1.04-1.32c0-.57-.3-1.29-1.02-1.29s-1.04.69-1.04,1.31"/>
    <path class="cls-2" d="M87.03,95.11c0-.4,0-.75-.03-1.06h.55l.03.67h.02c.14-.46.54-.74.94-.74h.17v.59c-.07-.01-.12-.01-.2-.01-.44,0-.74.33-.83.78,0,.09-.02.2-.02.29v1.81h-.63v-2.33Z"/>
    <path class="cls-2" d="M89.36,95.11c0-.4-.02-.75-.04-1.06h.54l.04.67h.02c.15-.46.54-.74.95-.74h.17v.59c-.07-.01-.13-.01-.22-.01-.44,0-.75.33-.83.78,0,.09-.01.2-.01.29v1.81h-.61v-2.33Z"/>
    <path class="cls-2" d="M93.99,96.62c0,.3.03.58.06.82h-.56l-.05-.42h-.03c-.19.27-.56.51-1.04.51-.68,0-1.03-.49-1.03-.99,0-.82.72-1.27,2.04-1.27v-.06c0-.28-.09-.79-.78-.77-.32,0-.65.09-.89.26l-.14-.44c.29-.16.71-.28,1.13-.28,1.03,0,1.27.72,1.27,1.38v1.27ZM93.4,95.69c-.68,0-1.44.11-1.44.78,0,.39.27.57.59.57.43,0,.73-.26.83-.56.02-.07.02-.13.02-.19v-.6Z"/>
    <path class="cls-2" d="M99.32,96.51c0,.36,0,.66.02.93h-.54l-.03-.57h0c-.17.29-.52.65-1.12.65-.54,0-1.18-.31-1.18-1.5v-1.98h.62v1.87c0,.63.21,1.08.76,1.08.42,0,.7-.28.81-.57.03-.07.06-.18.06-.29v-2.08h.62v2.46Z"/>
    <path class="cls-2" d="M100.34,94.95c0-.35,0-.63-.02-.9h.54l.04.55h0c.17-.31.56-.63,1.12-.63.48,0,1.21.28,1.21,1.45v2.01h-.61v-1.96c0-.55-.22-1.01-.8-1.01-.4,0-.73.29-.83.64-.03.08-.04.17-.04.28v2.04h-.61v-2.49Z"/>
    <path class="cls-2" d="M106.62,96.62c0,.3.02.58.05.82h-.57l-.04-.42h-.02c-.19.27-.54.51-1.04.51-.68,0-1.02-.49-1.02-.99,0-.82.72-1.27,2.03-1.27v-.06c0-.28-.07-.79-.77-.77-.33,0-.66.09-.89.26l-.13-.44c.27-.16.68-.28,1.1-.28,1.04,0,1.3.72,1.3,1.38v1.27ZM106.02,95.69c-.67,0-1.44.11-1.44.78,0,.39.26.57.56.57.46,0,.74-.26.84-.56.02-.07.03-.13.03-.19v-.6Z"/>
    <path class="cls-2" d="M109.08,94.95c0-.35,0-.63-.01-.9h.54l.03.55h.02c.19-.33.51-.63,1.07-.63.45,0,.8.28.94.68h.03c.1-.19.26-.33.39-.43.21-.15.43-.24.76-.24.43,0,1.11.28,1.11,1.46v2h-.6v-1.92c0-.64-.25-1.04-.75-1.04-.35,0-.61.26-.74.55-.02.09-.04.2-.04.31v2.1h-.62v-2.04c0-.52-.23-.92-.69-.92-.38,0-.66.31-.77.62-.03.09-.04.2-.04.3v2.04h-.61v-2.49Z"/>
    <path class="cls-2" d="M117.33,96.62c0,.3.01.58.04.82h-.56l-.04-.42h-.02c-.19.27-.56.51-1.05.51-.69,0-1.03-.49-1.03-.99,0-.82.73-1.27,2.03-1.27v-.06c0-.28-.07-.79-.77-.77-.32,0-.65.09-.88.26l-.15-.44c.27-.16.69-.28,1.12-.28,1.03,0,1.3.72,1.3,1.38v1.27ZM116.72,95.69c-.67,0-1.44.11-1.44.78,0,.39.29.57.58.57.45,0,.73-.26.84-.56.01-.07.01-.13.01-.19v-.6Z"/>
    <path class="cls-2" d="M118.31,95.11c0-.4,0-.75-.01-1.06h.53l.04.67h.01c.15-.46.54-.74.96-.74h.15v.59c-.07-.01-.12-.01-.21-.01-.43,0-.75.33-.83.78,0,.09,0,.2,0,.29v1.81h-.63v-2.33Z"/>
    <path class="cls-2" d="M122.95,97.32c-.16.08-.5.21-.96.21-1.02,0-1.69-.7-1.69-1.75s.71-1.8,1.82-1.8c.36,0,.67.09.86.18l-.15.47c-.15-.08-.38-.16-.71-.16-.79,0-1.21.56-1.21,1.28,0,.79.51,1.27,1.19,1.27.36,0,.58-.08.76-.17l.1.47Z"/>
    <path class="cls-2" d="M126.07,96.62c0,.3.01.58.04.82h-.56l-.05-.42h-.02c-.19.27-.53.51-1.04.51-.67,0-1.03-.49-1.03-.99,0-.82.73-1.27,2.04-1.27v-.06c0-.28-.07-.79-.77-.77-.32,0-.64.09-.87.26l-.15-.44c.28-.16.7-.28,1.12-.28,1.04,0,1.3.72,1.3,1.38v1.27ZM125.47,95.69c-.67,0-1.44.11-1.44.78,0,.39.26.57.57.57.44,0,.73-.26.84-.56.01-.07.03-.13.03-.19v-.6Z"/>
    <path class="cls-2" d="M126.92,97.07c0-.25.17-.45.41-.45.26,0,.43.19.43.45,0,.24-.17.45-.43.45-.24,0-.4-.21-.4-.45"/>
    <path class="cls-2" d="M94.49,98.23c.12-.33.27-.94.34-1.33l.54-.05c-.13.47-.36,1.07-.52,1.34l-.36.04Z"/>
    <path class="cls-2" d="M48.51,93.39c.15-.16.39-.47.53-.68l.33.11c-.19.24-.48.53-.64.64l-.22-.06Z"/>
    <path class="cls-2" d="M152.56,90.51c-.77,0-1.41-.64-1.41-1.41s.64-1.41,1.41-1.41,1.41.63,1.41,1.41-.63,1.41-1.41,1.41M152.56,87.79c-.72,0-1.31.59-1.31,1.31s.59,1.3,1.31,1.3,1.31-.58,1.31-1.3-.58-1.31-1.31-1.31"/>
    <path class="cls-2" d="M151.9,88.05c.13-.02.32-.04.49-.04.29,0,.46.05.59.17.11.08.17.22.17.39,0,.26-.18.44-.39.52h0c.16.06.27.21.3.41.06.28.12.49.15.57h-.26c-.04-.05-.08-.23-.14-.48-.07-.29-.18-.4-.41-.4h-.24v.88h-.26v-2.01ZM152.16,88.98h.27c.29,0,.47-.15.47-.39,0-.26-.19-.38-.47-.38-.12,0-.22.02-.26.03v.74Z"/>
  </g>
</svg>