<?xml version="1.0" encoding="UTF-8"?>
<svg id="Capa_1" data-name="Capa 1" xmlns="http://www.w3.org/2000/svg" viewBox="0 0 208.59 208.59">
  <defs>
    <style>
      .cls-1 {
        fill: #54565a;
      }
    </style>
  </defs>
  <path class="cls-1" d="M104.3,7.11c53.59,0,97.19,43.6,97.19,97.19s-43.6,97.19-97.19,97.19S7.11,157.89,7.11,104.3,50.7,7.11,104.3,7.11M104.3,0C46.69,0,0,46.69,0,104.3s46.69,104.3,104.3,104.3,104.3-46.69,104.3-104.3S161.9,0,104.3,0h0Z"/>
  <g id="Wkl2Mi.tif">
    <g>
      <path class="cls-1" d="M153.97,147.85c.09-.03.5-.44.56-.56.38-.82.19-8.65.16-10.24-.35-15.83-1.94-31.83-5.04-47.38.16-2.19,2.68-3.03,3.55-.73,1.09,2.87,1.81,9.55,2.27,12.86,1.68,12.03,2.62,24.54,2.85,36.65.05,2.6.42,8.93-.85,10.94-.59.94-2.4,1.73-2.48,1.86-.21.33.04,3.08-.11,3.95-.37,2.22-2.07,3.6-4.27,3.85-2.03.23-10.65.24-12.27-.34-1.88-.68-2-2.13-2.46-2.45-.11-.07-2.11.77-2.17.87-.22.36.04,2.9-.07,3.71-.31,2.26-2.66,4.12-4.88,4.37h-50.16c-2.31-.1-4.83-2.02-5.15-4.37-.26-1.98.89-3.97-1.97-4.2-.64-.05-.71.75-1.16,1.12-.99.79-1.9,1.18-3.18,1.3-2.51.22-8.5.29-10.91-.04-2.18-.3-3.77-1.88-4.06-4.06-.11-.81.15-3.37-.07-3.71-.09-.14-1.99-.97-2.6-2.03-1.12-1.96-.78-8.26-.73-10.78.35-17.93,2.43-48.78,9.4-65.13,3.64-8.53,10.72-9.81,18.21-13.73.36-5.73,2.08-11.23,7.9-13.39,10.32-3.83,27.49-3.7,37.9-.21,5.07,1.7,7.45,5.57,8.33,10.72.14.82-.11,2.34.21,2.87.35.58,10.29,4.73,12.16,6.05,4.22,2.95,7.65,9.87,8.37,14.9.33,2.3-2.02,3.26-3.16,1.75-.7-.94-1.58-5.41-2.25-7-.22-.52-.62-1.44-.91-1.89-.18-.27.03-.5-.62-.36-2.94,8.37-4.75,17.03-5.34,25.91v48.91h15ZM121.62,49.51c-11.81-3.41-24.33-3.41-36.14,0-.21.28,3.52,5.41,3.91,5.75,1.06.94,2.79.15,4.06.12,6.69-.15,13.78-.15,20.48,0,1.23.03,2.69.84,3.78-.12.39-.34,4.13-5.47,3.91-5.75ZM94.16,66.03c.12-.53-.3-.66-.56-.98-1.08-1.31-2.63-2.49-3.79-3.78-2.67-2.96-5.08-6.21-7.28-9.53-1.87,2.42-4.11,7.94-.42,9.67l12.05,4.62ZM112.93,66.03l12.05-4.62c3.69-1.73,1.45-7.25-.42-9.67-2.2,3.32-4.61,6.57-7.28,9.53-1.16,1.29-2.71,2.47-3.79,3.78-.26.32-.68.45-.56.98ZM114.33,59.03h-21.57l10.79,10.28,10.79-10.28ZM53.12,147.85h14.99v-9.67c0-1.25,2.92-2.11,3.52-.15.69,4.19-.5,9.54.14,13.59.15.96.96,1.76,1.86,2.06,19.86-.04,39.82.38,59.62-.21,1.02-.34,1.51-1.03,1.96-1.96,1.59-23.87-3.05-49.99,3.63-73.14.37-1.29,3.02-8.26,2.9-8.77-.17-.72-2.32-1.92-3.03-2.3-1.07-.59-9.37-4.44-9.89-4.3-.15.04-1.82,1.35-2.53,1.69-4.92,2.39-10.76,4.03-15.84,6.15l-.09,12.1c-.58,1.96-3.58,1.1-3.58-.22v-10.23c-2.23.7-4.22.7-6.44,0v18.35c0,1.22-3.09,2.07-3.58-.06l-.09-19.94c-5.08-2.14-10.91-3.75-15.84-6.15-.63-.3-2.58-1.72-2.75-1.72-.53,0-8.64,3.76-9.68,4.33-.92.5-3.15,1.62-3.03,2.73,8.22,19.07,6.21,39.75,6.41,60.04.08,1.86-2.71,2.63-3.43.9-.86-18.94,1.84-37.95-4.97-56.11-.11-.3-.63-2.29-1.12-1.82-2.65,6.31-4.26,13.1-5.53,19.84-2.6,13.84-3.58,27.89-3.99,41.96-.11,3.74-.81,8.03-.31,11.77.06.42.28,1.13.71,1.25ZM68.11,151.5h-12.33c.15,1.02-.51,3.49.76,3.87,3.2-.14,6.91.38,10.05.07,2.4-.24,1.31-2.09,1.52-3.94ZM151.31,151.5h-12.33c.15,1.02-.51,3.49.76,3.87,3.2-.14,6.91.38,10.05.07,2.4-.24,1.31-2.09,1.52-3.94ZM130.3,157.38h-53.51c-.08,1.61-.24,3.95,1.81,4.22l50.58-.16c1.43-.99,1.14-2.53,1.12-4.06Z"/>
      <path class="cls-1" d="M90.45,115.7c8.18.43,17.38-.8,25.44-.08,3.93.35,4.18,2.84,6.06,5.42.75,1.03,1.76,2.35,2.64,3.25,1.4,1.43,5.42,3.94,5.86,5.62-.1,4.78.58,10.31.14,15.01-.27,2.93-2.75,4.23-5.46,4.34-14.02-.84-29.28,1.08-43.16,0-2.32-.18-5.06-1.22-5.43-3.82-.65-4.61.33-10.77.11-15.53,1.87-2.9,5.02-4.53,7.3-7.27,2.1-2.54,2.95-6.19,6.51-6.94ZM122.35,126.94c-.78-.79-1.73-1.62-2.41-2.49-.75-.97-2.85-4.91-3.57-5.12h-25.66c-.73.21-2.63,3.86-3.33,4.8-2.06,2.76-4.72,4.77-7.31,6.98-.43,4.43-.16,8.99-.15,13.46.28.59.78,1.06,1.47,1.05l44.78-.07c.67-.32.96-.74,1.05-1.47.49-3.76-.35-8.68-.07-12.56-.21-.94-3.37-2.97-4.29-3.85-.22-.21-.32-.52-.52-.73Z"/>
    </g>
  </g>
</svg>