<?xml version="1.0" encoding="UTF-8"?>
<svg id="Capa_1" data-name="Capa 1" xmlns="http://www.w3.org/2000/svg" viewBox="0 0 208.59 208.59">
  <defs>
    <style>
      .cls-1 {
        fill: #3dae2b;
      }

      .cls-2 {
        fill: #54565a;
      }
    </style>
  </defs>
  <path class="cls-1" d="M104.3,7.11c53.59,0,97.19,43.6,97.19,97.19s-43.6,97.19-97.19,97.19S7.11,157.89,7.11,104.3,50.7,7.11,104.3,7.11M104.3,0C46.69,0,0,46.69,0,104.3s46.69,104.3,104.3,104.3,104.3-46.69,104.3-104.3S161.9,0,104.3,0h0Z"/>
  <g id="d9JkkC.tif">
    <path class="cls-2" d="M128.37,145.85c11.93.2,14.16,16.29,2.56,19.43h-58.59c-7.59-1.75-10.4-11.32-4.59-16.7,2.17-2.01,4.38-2.34,7.17-2.9v-80.8c-3.02-.67-5.18-.93-7.47-3.22-5.6-5.58-2.28-15.33,5.47-16.44h57.46c8.08,1.2,11.13,11.37,5,16.89-2.2,1.97-4.29,2.09-7.01,2.77l.06,28.95c2.03.45,3.91.77,5.84,1.61,4.04,1.75,6.17,5.3,10.14,6.88,4.04,1.6,8.6,1.38,12.33-.89.83-.5,2.46-2.26,3.1-2.38,2.19-.4,3.58,1.34,2.27,3.19-3.71,5.22-13.07,6.23-18.74,4.16-5.74-2.09-8.53-7.94-14.98-8.27v47.72ZM73.59,49.26c-6.38,1.2-6.41,9.88-.05,11.15l55.89.03c6.69-1.11,6.72-10.04-.03-11.22l-55.81.05ZM117.43,64.69h-38.14s-.46.42-.46.46v5.17c0,.24.74.68,1.07.75,9.58,1.95,23.33-.64,32.43-4.02l5.09-2.35ZM124.11,66.21c-12.54,6.8-26.54,10.17-40.88,9.44-.74-.04-4.39-1-4.39-.16v6.08c0,.64,3.39,1.01,4.11,1.06,14.21,1.02,29.13-2.79,41.17-10.18v-6.23ZM124.11,77.46c-11.92,6.25-25.47,10-39.06,9.44-1.55-.06-3.69-.63-5.17-.64-.34,0-1.05.16-1.05.47v6.08c1.56.7,4.11.96,5.93,1.06,13.49.78,27.83-3.39,39.35-10.18v-6.23ZM124.11,88.7c-11.95,6.13-25.08,9.58-38.59,9.58,11.97,5.48,25.44,8.06,38.59,6.23v-15.81ZM124.11,108.46c-12.85,1.99-26.06-.44-37.98-5.32-2.41-.99-4.81-2.56-7.3-3.19v5.62c0,.16.35.64.52.77.57.43,3.08,1.66,3.92,2.08,12.47,6.25,26.94,9.13,40.83,7.03v-6.99ZM124.11,119.71c-13.36,1.97-27.12-.71-39.4-6.03-1.41-.61-4.04-2.37-5.25-2.66-.33-.08-.62.22-.62.33v5.47c0,.78,7.9,4.35,9.13,4.85,11.37,4.7,23.88,6.94,36.15,5.03v-6.99ZM124.11,130.96c-11.5,1.52-23.03-.07-33.89-3.95-3.91-1.4-7.56-3.29-11.39-4.87v5.93c13.33,8.25,29.63,11.95,45.28,9.88v-6.99ZM78.84,133.39v12.01s.42.46.46.46h44.82v-3.95c-13.23,2.35-27.54-.7-39.71-6.03-.8-.35-5.22-2.85-5.57-2.48ZM132.82,159.73c3.42-3.19,1.22-9.19-3.39-9.62h-55.61c-6.88,1.19-6.61,10.33.3,11.25h54.71c1.26-.07,3.08-.78,3.98-1.63Z"/>
  </g>
</svg>