<?xml version="1.0" encoding="UTF-8"?>
<svg id="Capa_1" data-name="Capa 1" xmlns="http://www.w3.org/2000/svg" viewBox="0 0 208.59 208.59">
  <defs>
    <style>
      .cls-1 {
        fill: #3dae2b;
      }

      .cls-2 {
        fill: #54565a;
      }
    </style>
  </defs>
  <path class="cls-1" d="M104.3,7.11c53.59,0,97.19,43.6,97.19,97.19s-43.6,97.19-97.19,97.19S7.11,157.89,7.11,104.3,50.7,7.11,104.3,7.11M104.3,0C46.69,0,0,46.69,0,104.3s46.69,104.3,104.3,104.3,104.3-46.69,104.3-104.3S161.9,0,104.3,0h0Z"/>
  <g id="Wh8FQk.tif">
    <g>
      <path class="cls-2" d="M99.1,80.43v4.17c-4.4.27-4.44.23-4.17-4.17h4.17Z"/>
      <path class="cls-2" d="M99.1,100.69v4.17c-4.4.27-4.44.23-4.17-4.17h4.17Z"/>
      <rect class="cls-2" x="94.93" y="141.21" width="4.17" height="3.87"/>
      <path class="cls-2" d="M99.1,120.95v3.87c-4.07.16-4.54.49-4.17-3.87h4.17Z"/>
      <g>
        <path class="cls-2" d="M103.27,70.6c-2.16.8-5.34,4.87-7.16,5.5-1.21.42-2.33.27-2.89-.95l-8.13-18.69c-.05-.59,0-1.09.15-1.65.39-1.49,3.1-8.24,3.86-9.54.52-.88.75-1.06,1.8-1.18l29.37.14c.6.2.76.55,1.04,1.04,1,1.73,2.78,8.39,3.84,9.27,8.42,3.41,17.16,6.2,25.39,10.07,2.26,1.06,4.31,1.77,5.18,4.35,3.77,29.63,6.63,59.41,10.12,89.09,0,1.25.24,2.77-1.2,3.3-4.4.72-9.67,3.41-13.94,3.94-.88.11-1.7.22-2.45-.38l-6.56-29.63c.11,14.69-11.95,28.68-26.71,30.05-.95.09-4.19.22-4.88-.11-1.19-.57-3.82-11.52-4.91-13.26-1.81,3.66-2.43,8.64-4.17,12.22-.86,1.77-3.81,1.32-5.62,1.15-6.31-.59-12.76-4.08-17.36-8.27l-12.1,8.09c-.91.36-2.1.48-2.77-.35l-18.53-37.18-.04-35.36c3.8-7.46,7.15-16.28,11.44-23.42,1.03-1.72,1.4-2.09,3.13-3.13,6.59-3.95,14.38-6.73,21.58-9.35.42.11,1.52,3.57,1.34,3.82l-9.23,3.5.02,65.2c2,6.52,2.56,14.84,4.79,21.13.95,2.66,5.76,6.43,8.22,7.86,3.58,2.08,7.44,3.11,11.54,3.59l.41-.46,5.42-16.04v-74.34ZM115.49,47.95h-20.56c1.25,1.21,2.93,5.04,4.02,5.96.34.29.46.27.87.32,3.43.42,7.76-.3,11.29-.07l4.37-6.21ZM102.37,66.12l-11.01-15.78c-.13,1.61-2.28,4.65-2.04,6.03l6.37,14.22.74.17c1.89-1.62,3.83-3.39,5.95-4.64ZM108.05,66.12c2.12,1.25,4.05,3.02,5.95,4.64l.74-.17,6.37-14.22c.23-1.38-1.91-4.42-2.04-6.03l-11.01,15.78ZM108.34,58.08h-6.26l3.13,4.46,3.13-4.46ZM107.15,70.6v74.34l5.42,16.04.41.46c12.93-.95,23.57-11.26,24.57-24.23V63.88s-13.12-5.2-13.12-5.2c-1.2,2.2-6.79,16.86-8.05,17.42-.64.29-1.43.26-2.07,0l-7.16-5.5ZM160.75,149.53l-8.67-78.72c-.15-.66-.76-1.31-1.32-1.66-2.47-1.54-6.47-2.31-9.04-3.92v49.3s9.53,46.34,9.53,46.34c1.23-.56,9.98-2.52,10.29-2.96.52-.74-.52-3.17-.17-4.19l-7.15,1.49-.9-3.7,7.42-1.99ZM68.71,114.99v-49.46l-8.66,4.38-11.37,22.81c-.49,11.16-.17,22.46-.16,33.67l16.91,33.75c.32.31.51,0,.77-.14.98-.54,8.31-5.31,8.37-5.82l-1.39-5.52c-.33-.26-6.21,4.05-7.31,4.18-.62.07-1.56-2.8-2.21-3.13l8.35-5.07.23-.53c-1.33-5.02-2.25-10.16-3.61-15.18-2.34-8.61-5.64-17.01-7.68-25.68l3.89-1.07.14,1.2,3.74,11.62Z"/>
        <path class="cls-2" d="M114.81,88.54c5.23.33,11.52-.66,16.63-.07,1.62.19,2.11,1.02,2.24,2.52.29,3.12.35,10.38,0,13.43-.09.74-.24,1.1-.74,1.65s-7.64,4.23-8.59,4.52-1,.29-1.92,0c-.84-.26-8.26-4.08-8.6-4.51s-.37-.53-.44-1.05c-.37-2.85-.33-11.72,0-14.62.11-.97.41-1.62,1.41-1.87ZM129.49,92.65h-12.22v10.58c1.32.62,4.91,3.05,6.13,3.13.96.06,5.14-2.39,6.08-3.13v-10.58Z"/>
      </g>
    </g>
  </g>
</svg>